<?xml version="1.0" encoding="UTF-8"?>
<svg xmlns="http://www.w3.org/2000/svg" width="602" height="588" viewBox="0 0 602 588" fill="none">
  <rect x="0.5" y="0.94043" width="601" height="586" rx="11.5" fill="white" stroke="#E2DFDB"></rect>
  <path d="M59.38 89.4404C58.756 89.4404 58.384 89.1164 58.264 88.4684L53.62 65.3564C53.596 65.2364 53.584 65.1044 53.584 64.9604C53.584 64.7684 53.656 64.6004 53.8 64.4564C53.944 64.3124 54.112 64.2404 54.304 64.2404H56.176C56.68 64.2404 56.968 64.4444 57.04 64.8524L60.712 83.4284L64.6 70.6844C64.816 70.1084 65.2 69.8204 65.752 69.8204H67.084C67.396 69.8204 67.636 69.9044 67.804 70.0724C67.996 70.2404 68.128 70.4444 68.2 70.6844L72.124 83.4284L75.76 64.8524C75.832 64.4444 76.132 64.2404 76.66 64.2404H78.532C78.724 64.2404 78.892 64.3124 79.036 64.4564C79.18 64.6004 79.252 64.7684 79.252 64.9604L79.216 65.3564L74.572 88.4684C74.428 89.1164 74.056 89.4404 73.456 89.4404H72.052C71.428 89.4404 71.032 89.1404 70.864 88.5404L66.4 74.8244L61.972 88.5404C61.78 89.1404 61.384 89.4404 60.784 89.4404H59.38ZM82.6696 67.2284C82.4296 67.2284 82.2256 67.1564 82.0576 67.0124C81.9136 66.8444 81.8416 66.6404 81.8416 66.4004V64.4564C81.8416 64.2164 81.9136 64.0124 82.0576 63.8444C82.2256 63.6764 82.4296 63.5924 82.6696 63.5924H84.9376C85.1776 63.5924 85.3816 63.6764 85.5496 63.8444C85.7176 64.0124 85.8016 64.2164 85.8016 64.4564V66.4004C85.8016 66.6404 85.7176 66.8444 85.5496 67.0124C85.3816 67.1564 85.1776 67.2284 84.9376 67.2284H82.6696ZM82.9576 89.4404C82.7176 89.4404 82.5136 89.3684 82.3456 89.2244C82.2016 89.0564 82.1296 88.8524 82.1296 88.6124V71.5484C82.1296 71.3084 82.2016 71.1164 82.3456 70.9724C82.5136 70.8044 82.7176 70.7204 82.9576 70.7204H84.6856C84.9256 70.7204 85.1176 70.8044 85.2616 70.9724C85.4296 71.1164 85.5136 71.3084 85.5136 71.5484V88.6124C85.5136 88.8524 85.4296 89.0564 85.2616 89.2244C85.1176 89.3684 84.9256 89.4404 84.6856 89.4404H82.9576ZM96.7939 89.4404C93.0019 89.4404 91.1059 87.3284 91.1059 83.1044V73.6004H88.2979C88.0579 73.6004 87.8539 73.5284 87.6859 73.3844C87.5419 73.2164 87.4699 73.0124 87.4699 72.7724V71.5484C87.4699 71.3084 87.5419 71.1164 87.6859 70.9724C87.8539 70.8044 88.0579 70.7204 88.2979 70.7204H91.1059V64.7084C91.1059 64.4684 91.1779 64.2764 91.3219 64.1324C91.4899 63.9644 91.6939 63.8804 91.9339 63.8804H93.6259C93.8659 63.8804 94.0579 63.9644 94.2019 64.1324C94.3699 64.2764 94.4539 64.4684 94.4539 64.7084V70.7204H98.9179C99.1579 70.7204 99.3499 70.8044 99.4939 70.9724C99.6619 71.1164 99.7459 71.3084 99.7459 71.5484V72.7724C99.7459 73.0124 99.6619 73.2164 99.4939 73.3844C99.3499 73.5284 99.1579 73.6004 98.9179 73.6004H94.4539V82.8524C94.4539 84.0524 94.6579 84.9644 95.0659 85.5884C95.4739 86.1884 96.1459 86.4884 97.0819 86.4884H99.2779C99.5179 86.4884 99.7099 86.5724 99.8539 86.7404C100.022 86.8844 100.106 87.0764 100.106 87.3164V88.6124C100.106 88.8524 100.022 89.0564 99.8539 89.2244C99.7099 89.3684 99.5179 89.4404 99.2779 89.4404H96.7939ZM103.05 89.4404C102.81 89.4404 102.606 89.3684 102.438 89.2244C102.294 89.0564 102.222 88.8524 102.222 88.6124V64.7084C102.222 64.4684 102.294 64.2764 102.438 64.1324C102.606 63.9644 102.81 63.8804 103.05 63.8804H104.85C105.09 63.8804 105.282 63.9644 105.426 64.1324C105.594 64.2764 105.678 64.4684 105.678 64.7084V73.0964C106.374 72.2084 107.19 71.5364 108.126 71.0804C109.062 70.6004 110.226 70.3604 111.618 70.3604C113.922 70.3604 115.71 71.1044 116.982 72.5924C118.278 74.0564 118.926 76.0124 118.926 78.4604V88.6124C118.926 88.8524 118.842 89.0564 118.674 89.2244C118.53 89.3684 118.338 89.4404 118.098 89.4404H116.298C116.058 89.4404 115.854 89.3684 115.686 89.2244C115.542 89.0564 115.47 88.8524 115.47 88.6124V78.6404C115.47 76.9364 115.05 75.6164 114.21 74.6804C113.394 73.7444 112.206 73.2764 110.646 73.2764C109.134 73.2764 107.922 73.7564 107.01 74.7164C106.122 75.6524 105.678 76.9604 105.678 78.6404V88.6124C105.678 88.8524 105.594 89.0564 105.426 89.2244C105.282 89.3684 105.09 89.4404 104.85 89.4404H103.05ZM130.429 89.8004C127.789 89.8004 125.737 89.0564 124.273 87.5684C122.833 86.0804 122.065 84.1004 121.969 81.6284L121.933 80.0804L121.969 78.5324C122.065 76.0844 122.845 74.1164 124.309 72.6284C125.773 71.1164 127.813 70.3604 130.429 70.3604C133.045 70.3604 135.085 71.1164 136.549 72.6284C138.013 74.1164 138.793 76.0844 138.889 78.5324C138.913 78.7964 138.925 79.3124 138.925 80.0804C138.925 80.8484 138.913 81.3644 138.889 81.6284C138.793 84.1004 138.013 86.0804 136.549 87.5684C135.109 89.0564 133.069 89.8004 130.429 89.8004ZM130.429 87.0284C131.941 87.0284 133.129 86.5484 133.993 85.5884C134.881 84.6284 135.361 83.2484 135.433 81.4484C135.457 81.2084 135.469 80.7524 135.469 80.0804C135.469 79.4084 135.457 78.9524 135.433 78.7124C135.361 76.9124 134.881 75.5324 133.993 74.5724C133.129 73.6124 131.941 73.1324 130.429 73.1324C128.917 73.1324 127.717 73.6124 126.829 74.5724C125.941 75.5324 125.473 76.9124 125.425 78.7124L125.389 80.0804L125.425 81.4484C125.473 83.2484 125.941 84.6284 126.829 85.5884C127.717 86.5484 128.917 87.0284 130.429 87.0284ZM149.054 89.8004C146.774 89.8004 145.01 89.0684 143.762 87.6044C142.514 86.1164 141.89 84.1484 141.89 81.7004V71.5484C141.89 71.3084 141.962 71.1164 142.106 70.9724C142.274 70.8044 142.478 70.7204 142.718 70.7204H144.518C144.758 70.7204 144.95 70.8044 145.094 70.9724C145.262 71.1164 145.346 71.3084 145.346 71.5484V81.5204C145.346 85.0964 146.906 86.8844 150.026 86.8844C151.538 86.8844 152.738 86.4164 153.626 85.4804C154.514 84.5204 154.958 83.2004 154.958 81.5204V71.5484C154.958 71.3084 155.03 71.1164 155.174 70.9724C155.342 70.8044 155.546 70.7204 155.786 70.7204H157.586C157.826 70.7204 158.018 70.8044 158.162 70.9724C158.306 71.1164 158.378 71.3084 158.378 71.5484V88.6124C158.378 88.8524 158.306 89.0564 158.162 89.2244C158.018 89.3684 157.826 89.4404 157.586 89.4404H155.894C155.654 89.4404 155.45 89.3684 155.282 89.2244C155.138 89.0564 155.066 88.8524 155.066 88.6124V87.0284C154.394 87.9404 153.578 88.6364 152.618 89.1164C151.658 89.5724 150.47 89.8004 149.054 89.8004ZM169.672 89.4404C165.88 89.4404 163.984 87.3284 163.984 83.1044V73.6004H161.176C160.936 73.6004 160.732 73.5284 160.564 73.3844C160.42 73.2164 160.348 73.0124 160.348 72.7724V71.5484C160.348 71.3084 160.42 71.1164 160.564 70.9724C160.732 70.8044 160.936 70.7204 161.176 70.7204H163.984V64.7084C163.984 64.4684 164.056 64.2764 164.2 64.1324C164.368 63.9644 164.572 63.8804 164.812 63.8804H166.504C166.744 63.8804 166.936 63.9644 167.08 64.1324C167.248 64.2764 167.332 64.4684 167.332 64.7084V70.7204H171.796C172.036 70.7204 172.228 70.8044 172.372 70.9724C172.54 71.1164 172.624 71.3084 172.624 71.5484V72.7724C172.624 73.0124 172.54 73.2164 172.372 73.3844C172.228 73.5284 172.036 73.6004 171.796 73.6004H167.332V82.8524C167.332 84.0524 167.536 84.9644 167.944 85.5884C168.352 86.1884 169.024 86.4884 169.96 86.4884H172.156C172.396 86.4884 172.588 86.5724 172.732 86.7404C172.9 86.8844 172.984 87.0764 172.984 87.3164V88.6124C172.984 88.8524 172.9 89.0564 172.732 89.2244C172.588 89.3684 172.396 89.4404 172.156 89.4404H169.672ZM183.822 89.4404C183.582 89.4404 183.378 89.3684 183.21 89.2244C183.066 89.0564 182.994 88.8524 182.994 88.6124V65.1044C182.994 64.8404 183.066 64.6364 183.21 64.4924C183.378 64.3244 183.582 64.2404 183.822 64.2404H185.622C186.006 64.2404 186.318 64.4324 186.558 64.8164L194.154 79.3604L201.822 64.8164C201.87 64.6724 201.966 64.5404 202.11 64.4204C202.278 64.3004 202.482 64.2404 202.722 64.2404H204.486C204.75 64.2404 204.954 64.3244 205.098 64.4924C205.266 64.6364 205.35 64.8404 205.35 65.1044V88.6124C205.35 88.8524 205.266 89.0564 205.098 89.2244C204.93 89.3684 204.726 89.4404 204.486 89.4404H202.722C202.482 89.4404 202.278 89.3684 202.11 89.2244C201.966 89.0564 201.894 88.8524 201.894 88.6124V70.9004L195.882 82.6364C195.642 83.1404 195.258 83.3924 194.73 83.3924H193.614C193.086 83.3924 192.702 83.1404 192.462 82.6364L186.414 70.9004V88.6124C186.414 88.8524 186.33 89.0564 186.162 89.2244C186.018 89.3684 185.826 89.4404 185.586 89.4404H183.822ZM208.521 89.4404C208.329 89.4404 208.161 89.3684 208.017 89.2244C207.873 89.0804 207.801 88.9124 207.801 88.7204C207.801 88.5284 207.813 88.3964 207.837 88.3244L216.765 65.0324C216.957 64.5044 217.341 64.2404 217.917 64.2404H220.365C220.941 64.2404 221.325 64.5044 221.517 65.0324L230.409 88.3244L230.481 88.7204C230.481 88.9124 230.409 89.0804 230.265 89.2244C230.121 89.3684 229.953 89.4404 229.761 89.4404H227.925C227.661 89.4404 227.457 89.3804 227.313 89.2604C227.169 89.1164 227.073 88.9724 227.025 88.8284L225.045 83.7164H213.237L211.257 88.8284C211.209 88.9724 211.101 89.1164 210.933 89.2604C210.789 89.3804 210.597 89.4404 210.357 89.4404H208.521ZM224.001 80.6204L219.141 67.8404L214.281 80.6204H224.001ZM233.796 89.4404C233.556 89.4404 233.352 89.3684 233.184 89.2244C233.04 89.0564 232.968 88.8524 232.968 88.6124V65.1044C232.968 64.8404 233.04 64.6364 233.184 64.4924C233.352 64.3244 233.556 64.2404 233.796 64.2404H242.94C245.652 64.2404 247.788 64.9004 249.348 66.2204C250.908 67.5404 251.688 69.4484 251.688 71.9444C251.688 74.4404 250.908 76.3484 249.348 77.6684C247.812 78.9644 245.676 79.6124 242.94 79.6124H236.568V88.6124C236.568 88.8524 236.484 89.0564 236.316 89.2244C236.148 89.3684 235.944 89.4404 235.704 89.4404H233.796ZM242.76 76.5884C244.512 76.5884 245.832 76.1924 246.72 75.4004C247.632 74.6084 248.088 73.4564 248.088 71.9444C248.088 70.4324 247.644 69.2804 246.756 68.4884C245.868 67.6724 244.536 67.2644 242.76 67.2644H236.532V76.5884H242.76ZM255.531 89.4404C255.291 89.4404 255.087 89.3684 254.919 89.2244C254.775 89.0564 254.703 88.8524 254.703 88.6124V65.1044C254.703 64.8404 254.775 64.6364 254.919 64.4924C255.087 64.3244 255.291 64.2404 255.531 64.2404H257.331C257.715 64.2404 258.027 64.4324 258.267 64.8164L265.863 79.3604L273.531 64.8164C273.579 64.6724 273.675 64.5404 273.819 64.4204C273.987 64.3004 274.191 64.2404 274.431 64.2404H276.195C276.459 64.2404 276.663 64.3244 276.807 64.4924C276.975 64.6364 277.059 64.8404 277.059 65.1044V88.6124C277.059 88.8524 276.975 89.0564 276.807 89.2244C276.639 89.3684 276.435 89.4404 276.195 89.4404H274.431C274.191 89.4404 273.987 89.3684 273.819 89.2244C273.675 89.0564 273.603 88.8524 273.603 88.6124V70.9004L267.591 82.6364C267.351 83.1404 266.967 83.3924 266.439 83.3924H265.323C264.795 83.3924 264.411 83.1404 264.171 82.6364L258.123 70.9004V88.6124C258.123 88.8524 258.039 89.0564 257.871 89.2244C257.727 89.3684 257.535 89.4404 257.295 89.4404H255.531ZM282.751 89.4404C282.511 89.4404 282.307 89.3684 282.139 89.2244C281.995 89.0564 281.923 88.8524 281.923 88.6124V65.1044C281.923 64.8404 281.995 64.6364 282.139 64.4924C282.307 64.3244 282.511 64.2404 282.751 64.2404H297.619C297.859 64.2404 298.051 64.3244 298.195 64.4924C298.363 64.6364 298.447 64.8404 298.447 65.1044V66.4724C298.447 66.7124 298.375 66.9164 298.231 67.0844C298.087 67.2284 297.883 67.3004 297.619 67.3004H285.379V75.1844H296.827C297.067 75.1844 297.259 75.2684 297.403 75.4364C297.571 75.5804 297.655 75.7844 297.655 76.0484V77.3804C297.655 77.6204 297.571 77.8244 297.403 77.9924C297.259 78.1364 297.067 78.2084 296.827 78.2084H285.379V86.3804H297.907C298.171 86.3804 298.375 86.4524 298.519 86.5964C298.663 86.7404 298.735 86.9444 298.735 87.2084V88.6124C298.735 88.8524 298.651 89.0564 298.483 89.2244C298.339 89.3684 298.147 89.4404 297.907 89.4404H282.751Z" fill="black"></path>
  <path d="M117.5 319.44L166.5 242.94L201 194.44" stroke="black"></path>
  <path d="M305.5 451.94L309.5 387.94" stroke="black"></path>
  <path d="M308 390.44L368 356.44" stroke="black"></path>
  <path d="M250 389.44H309.5" stroke="black"></path>
  <rect x="264" y="320.376" width="58.2316" height="58.2316" fill="white"></rect>
  <path d="M166 242.94L124.5 194.94" stroke="black"></path>
  <circle cx="250.93" cy="385.37" r="13" transform="rotate(67.9469 250.93 385.37)" fill="#F0800E"></circle>
  <circle cx="124" cy="194.44" r="22" fill="#008786"></circle>
  <circle cx="366.651" cy="355.091" r="22" transform="rotate(67.9469 366.651 355.091)" fill="#008786"></circle>
  <circle cx="166" cy="243.44" r="22" fill="#E83A4F"></circle>
  <circle cx="309.651" cy="389.091" r="22" transform="rotate(67.9469 309.651 389.091)" fill="#E83A4F"></circle>
  <circle cx="120" cy="316.44" r="21.5" fill="#8D8D8D" stroke="#8D8D8D"></circle>
  <circle cx="304.651" cy="450.091" r="22" transform="rotate(67.9469 304.651 450.091)" fill="#8D8D8D"></circle>
  <circle cx="206" cy="186.44" r="13" fill="#F0800E"></circle>
  <path d="M503.5 169.44L541 234.94L521.5 291.94L430 200.94" stroke="black"></path>
  <circle cx="521.784" cy="290.223" r="13" transform="rotate(59.7002 521.784 290.223)" fill="#F0800E"></circle>
  <circle cx="501.503" cy="167.582" r="22" transform="rotate(59.7002 501.503 167.582)" fill="#008786"></circle>
  <circle cx="539.847" cy="233.201" r="22" transform="rotate(59.7002 539.847 233.201)" fill="#E83A4F"></circle>
  <circle cx="428.093" cy="199.535" r="22" transform="rotate(59.7002 428.093 199.535)" fill="#8D8D8D"></circle>
  <ellipse cx="412" cy="478.44" rx="8" ry="8" transform="rotate(90 412 478.44)" fill="#8D8D8D"></ellipse>
  <path d="M431.76 483.44C431.653 483.44 431.563 483.408 431.488 483.344C431.424 483.27 431.392 483.179 431.392 483.072V472.624C431.392 472.507 431.424 472.416 431.488 472.352C431.563 472.278 431.653 472.24 431.76 472.24H435.824C437.029 472.24 437.979 472.534 438.672 473.12C439.365 473.707 439.712 474.555 439.712 475.664C439.712 476.774 439.365 477.622 438.672 478.208C437.989 478.784 437.04 479.072 435.824 479.072H432.992V483.072C432.992 483.179 432.955 483.27 432.88 483.344C432.805 483.408 432.715 483.44 432.608 483.44H431.76ZM435.744 477.728C436.523 477.728 437.109 477.552 437.504 477.2C437.909 476.848 438.112 476.336 438.112 475.664C438.112 474.992 437.915 474.48 437.52 474.128C437.125 473.766 436.533 473.584 435.744 473.584H432.976V477.728H435.744ZM441.918 483.44C441.811 483.44 441.72 483.408 441.646 483.344C441.582 483.27 441.55 483.179 441.55 483.072V475.504C441.55 475.398 441.582 475.307 441.646 475.232C441.72 475.158 441.811 475.12 441.918 475.12H442.654C442.76 475.12 442.851 475.158 442.926 475.232C443 475.307 443.038 475.398 443.038 475.504V476.208C443.475 475.483 444.222 475.12 445.278 475.12H445.902C446.008 475.12 446.094 475.158 446.158 475.232C446.232 475.296 446.27 475.382 446.27 475.488V476.144C446.27 476.251 446.232 476.336 446.158 476.4C446.094 476.464 446.008 476.496 445.902 476.496H444.942C444.366 476.496 443.912 476.667 443.582 477.008C443.251 477.339 443.086 477.792 443.086 478.368V483.072C443.086 483.179 443.048 483.27 442.974 483.344C442.899 483.408 442.808 483.44 442.702 483.44H441.918ZM450.98 483.6C449.806 483.6 448.894 483.27 448.244 482.608C447.604 481.947 447.262 481.067 447.22 479.968L447.204 479.28L447.22 478.592C447.262 477.504 447.609 476.63 448.26 475.968C448.91 475.296 449.817 474.96 450.98 474.96C452.142 474.96 453.049 475.296 453.7 475.968C454.35 476.63 454.697 477.504 454.74 478.592C454.75 478.71 454.756 478.939 454.756 479.28C454.756 479.622 454.75 479.851 454.74 479.968C454.697 481.067 454.35 481.947 453.7 482.608C453.06 483.27 452.153 483.6 450.98 483.6ZM450.98 482.368C451.652 482.368 452.18 482.155 452.564 481.728C452.958 481.302 453.172 480.688 453.204 479.888C453.214 479.782 453.22 479.579 453.22 479.28C453.22 478.982 453.214 478.779 453.204 478.672C453.172 477.872 452.958 477.259 452.564 476.832C452.18 476.406 451.652 476.192 450.98 476.192C450.308 476.192 449.774 476.406 449.38 476.832C448.985 477.259 448.777 477.872 448.756 478.672L448.74 479.28L448.756 479.888C448.777 480.688 448.985 481.302 449.38 481.728C449.774 482.155 450.308 482.368 450.98 482.368ZM457.259 473.568C457.152 473.568 457.062 473.536 456.987 473.472C456.923 473.398 456.891 473.307 456.891 473.2V472.336C456.891 472.23 456.923 472.139 456.987 472.064C457.062 471.99 457.152 471.952 457.259 471.952H458.283C458.39 471.952 458.48 471.99 458.555 472.064C458.63 472.139 458.667 472.23 458.667 472.336V473.2C458.667 473.307 458.63 473.398 458.555 473.472C458.48 473.536 458.39 473.568 458.283 473.568H457.259ZM455.499 486.48C455.392 486.48 455.307 486.443 455.243 486.368C455.168 486.304 455.131 486.219 455.131 486.112V485.568C455.131 485.462 455.168 485.371 455.243 485.296C455.307 485.232 455.392 485.2 455.499 485.2H455.723C456.246 485.2 456.592 485.067 456.763 484.8C456.934 484.534 457.019 484.139 457.019 483.616V475.488C457.019 475.382 457.051 475.296 457.115 475.232C457.19 475.158 457.28 475.12 457.387 475.12H458.171C458.278 475.12 458.363 475.158 458.427 475.232C458.502 475.296 458.539 475.382 458.539 475.488V483.632C458.539 485.531 457.627 486.48 455.803 486.48H455.499ZM464.349 483.6C463.251 483.6 462.371 483.264 461.709 482.592C461.059 481.91 460.701 480.982 460.637 479.808L460.621 479.264L460.637 478.736C460.712 477.584 461.075 476.667 461.725 475.984C462.387 475.302 463.256 474.96 464.333 474.96C465.517 474.96 466.435 475.339 467.085 476.096C467.736 476.843 468.061 477.856 468.061 479.136V479.408C468.061 479.515 468.024 479.606 467.95 479.68C467.886 479.744 467.8 479.776 467.694 479.776H462.157V479.92C462.189 480.614 462.397 481.206 462.781 481.696C463.176 482.176 463.693 482.416 464.333 482.416C464.824 482.416 465.224 482.32 465.533 482.128C465.853 481.926 466.088 481.718 466.237 481.504C466.333 481.376 466.403 481.302 466.445 481.28C466.499 481.248 466.589 481.232 466.717 481.232H467.502C467.598 481.232 467.678 481.259 467.741 481.312C467.805 481.366 467.837 481.44 467.837 481.536C467.837 481.771 467.688 482.054 467.39 482.384C467.102 482.715 466.691 483.003 466.157 483.248C465.635 483.483 465.032 483.6 464.349 483.6ZM466.542 478.672V478.624C466.542 477.888 466.339 477.291 465.933 476.832C465.539 476.363 465.005 476.128 464.333 476.128C463.661 476.128 463.128 476.363 462.733 476.832C462.349 477.291 462.157 477.888 462.157 478.624V478.672H466.542ZM473.435 483.6C472.293 483.6 471.397 483.28 470.747 482.64C470.107 481.99 469.765 481.083 469.723 479.92L469.707 479.28L469.723 478.64C469.765 477.478 470.107 476.576 470.747 475.936C471.397 475.286 472.293 474.96 473.435 474.96C474.203 474.96 474.853 475.099 475.387 475.376C475.92 475.654 476.315 475.995 476.571 476.4C476.837 476.806 476.981 477.211 477.003 477.616C477.013 477.723 476.981 477.808 476.907 477.872C476.832 477.936 476.741 477.968 476.635 477.968H475.867C475.76 477.968 475.68 477.947 475.627 477.904C475.573 477.862 475.52 477.776 475.467 477.648C475.285 477.136 475.029 476.774 474.699 476.56C474.368 476.336 473.952 476.224 473.451 476.224C472.789 476.224 472.261 476.432 471.867 476.848C471.483 477.254 471.275 477.878 471.243 478.72L471.227 479.296L471.243 479.84C471.275 480.694 471.483 481.323 471.867 481.728C472.251 482.134 472.779 482.336 473.451 482.336C473.952 482.336 474.368 482.23 474.699 482.016C475.029 481.792 475.285 481.424 475.467 480.912C475.52 480.784 475.573 480.699 475.627 480.656C475.68 480.603 475.76 480.576 475.867 480.576H476.635C476.741 480.576 476.832 480.614 476.907 480.688C476.981 480.752 477.013 480.838 477.003 480.944C476.981 481.339 476.837 481.744 476.571 482.16C476.315 482.566 475.92 482.907 475.387 483.184C474.864 483.462 474.213 483.6 473.435 483.6ZM482.251 483.44C480.565 483.44 479.723 482.502 479.723 480.624V476.4H478.475C478.368 476.4 478.277 476.368 478.203 476.304C478.139 476.23 478.107 476.139 478.107 476.032V475.488C478.107 475.382 478.139 475.296 478.203 475.232C478.277 475.158 478.368 475.12 478.475 475.12H479.723V472.448C479.723 472.342 479.755 472.256 479.819 472.192C479.893 472.118 479.984 472.08 480.091 472.08H480.843C480.949 472.08 481.035 472.118 481.099 472.192C481.173 472.256 481.211 472.342 481.211 472.448V475.12H483.195C483.301 475.12 483.387 475.158 483.451 475.232C483.525 475.296 483.563 475.382 483.563 475.488V476.032C483.563 476.139 483.525 476.23 483.451 476.304C483.387 476.368 483.301 476.4 483.195 476.4H481.211V480.512C481.211 481.046 481.301 481.451 481.483 481.728C481.664 481.995 481.963 482.128 482.379 482.128H483.355C483.461 482.128 483.547 482.166 483.611 482.24C483.685 482.304 483.723 482.39 483.723 482.496V483.072C483.723 483.179 483.685 483.27 483.611 483.344C483.547 483.408 483.461 483.44 483.355 483.44H482.251ZM493.183 483.6C492.297 483.6 491.529 483.462 490.879 483.184C490.239 482.907 489.748 482.544 489.407 482.096C489.065 481.638 488.884 481.147 488.863 480.624C488.863 480.539 488.895 480.464 488.959 480.4C489.033 480.326 489.119 480.288 489.215 480.288H490.031C490.233 480.288 490.372 480.395 490.447 480.608C490.543 481.056 490.815 481.44 491.263 481.76C491.721 482.08 492.361 482.24 493.183 482.24C494.068 482.24 494.735 482.086 495.183 481.776C495.631 481.456 495.855 481.014 495.855 480.448C495.855 480.086 495.743 479.792 495.519 479.568C495.305 479.344 494.985 479.147 494.559 478.976C494.132 478.806 493.492 478.592 492.639 478.336C491.807 478.102 491.145 477.851 490.655 477.584C490.164 477.318 489.796 476.987 489.551 476.592C489.305 476.198 489.183 475.702 489.183 475.104C489.183 474.528 489.337 474.011 489.647 473.552C489.967 473.094 490.42 472.736 491.007 472.48C491.593 472.214 492.292 472.08 493.103 472.08C493.935 472.08 494.649 472.23 495.247 472.528C495.844 472.816 496.297 473.184 496.607 473.632C496.916 474.08 497.081 474.528 497.103 474.976C497.103 475.062 497.071 475.136 497.007 475.2C496.953 475.264 496.873 475.296 496.767 475.296H495.919C495.695 475.296 495.556 475.195 495.503 474.992C495.439 474.544 495.188 474.176 494.751 473.888C494.313 473.59 493.764 473.44 493.103 473.44C492.377 473.44 491.807 473.579 491.391 473.856C490.975 474.134 490.767 474.544 490.767 475.088C490.767 475.451 490.863 475.75 491.055 475.984C491.257 476.219 491.561 476.427 491.967 476.608C492.372 476.779 492.964 476.976 493.743 477.2C494.649 477.446 495.364 477.702 495.887 477.968C496.409 478.224 496.799 478.55 497.055 478.944C497.311 479.328 497.439 479.819 497.439 480.416C497.439 481.408 497.055 482.187 496.287 482.752C495.519 483.318 494.484 483.6 493.183 483.6ZM502.676 483.44C500.99 483.44 500.148 482.502 500.148 480.624V476.4H498.9C498.793 476.4 498.702 476.368 498.628 476.304C498.564 476.23 498.532 476.139 498.532 476.032V475.488C498.532 475.382 498.564 475.296 498.628 475.232C498.702 475.158 498.793 475.12 498.9 475.12H500.148V472.448C500.148 472.342 500.18 472.256 500.244 472.192C500.318 472.118 500.409 472.08 500.516 472.08H501.268C501.374 472.08 501.46 472.118 501.524 472.192C501.598 472.256 501.636 472.342 501.636 472.448V475.12H503.62C503.726 475.12 503.812 475.158 503.876 475.232C503.95 475.296 503.988 475.382 503.988 475.488V476.032C503.988 476.139 503.95 476.23 503.876 476.304C503.812 476.368 503.726 476.4 503.62 476.4H501.636V480.512C501.636 481.046 501.726 481.451 501.908 481.728C502.089 481.995 502.388 482.128 502.804 482.128H503.78C503.886 482.128 503.972 482.166 504.036 482.24C504.11 482.304 504.148 482.39 504.148 482.496V483.072C504.148 483.179 504.11 483.27 504.036 483.344C503.972 483.408 503.886 483.44 503.78 483.44H502.676ZM508.098 483.6C507.575 483.6 507.09 483.494 506.642 483.28C506.194 483.067 505.836 482.779 505.57 482.416C505.314 482.043 505.186 481.632 505.186 481.184C505.186 480.48 505.474 479.904 506.05 479.456C506.636 478.998 507.426 478.699 508.418 478.56L510.802 478.224V477.76C510.802 476.672 510.178 476.128 508.93 476.128C508.46 476.128 508.076 476.23 507.778 476.432C507.479 476.624 507.255 476.854 507.106 477.12C507.074 477.216 507.031 477.286 506.978 477.328C506.935 477.371 506.871 477.392 506.786 477.392H506.098C506.002 477.392 505.916 477.36 505.842 477.296C505.778 477.222 505.746 477.136 505.746 477.04C505.756 476.784 505.874 476.496 506.098 476.176C506.332 475.846 506.69 475.563 507.17 475.328C507.65 475.083 508.242 474.96 508.946 474.96C510.14 474.96 510.999 475.243 511.522 475.808C512.044 476.363 512.306 477.056 512.306 477.888V483.072C512.306 483.179 512.268 483.27 512.194 483.344C512.13 483.408 512.044 483.44 511.938 483.44H511.202C511.095 483.44 511.004 483.408 510.93 483.344C510.866 483.27 510.834 483.179 510.834 483.072V482.384C510.599 482.726 510.258 483.014 509.81 483.248C509.362 483.483 508.791 483.6 508.098 483.6ZM508.434 482.4C509.127 482.4 509.692 482.176 510.13 481.728C510.578 481.27 510.802 480.614 510.802 479.76V479.312L508.946 479.584C508.188 479.691 507.618 479.872 507.234 480.128C506.85 480.374 506.658 480.688 506.658 481.072C506.658 481.499 506.834 481.83 507.186 482.064C507.538 482.288 507.954 482.4 508.434 482.4ZM515.09 483.44C514.983 483.44 514.893 483.408 514.818 483.344C514.754 483.27 514.722 483.179 514.722 483.072V472.448C514.722 472.342 514.754 472.256 514.818 472.192C514.893 472.118 514.983 472.08 515.09 472.08H515.842C515.949 472.08 516.034 472.118 516.098 472.192C516.173 472.256 516.21 472.342 516.21 472.448V478.016L519.362 475.392C519.394 475.371 519.447 475.328 519.522 475.264C519.597 475.211 519.666 475.174 519.73 475.152C519.805 475.131 519.895 475.12 520.002 475.12H520.85C520.946 475.12 521.026 475.152 521.09 475.216C521.154 475.28 521.186 475.36 521.186 475.456C521.186 475.574 521.122 475.675 520.994 475.76L517.298 478.832L521.394 482.816C521.522 482.923 521.586 483.019 521.586 483.104C521.586 483.2 521.554 483.28 521.49 483.344C521.426 483.408 521.346 483.44 521.25 483.44H520.418C520.258 483.44 520.141 483.424 520.066 483.392C520.002 483.36 519.906 483.286 519.778 483.168L516.21 479.76V483.072C516.21 483.179 516.173 483.27 516.098 483.344C516.034 483.408 515.949 483.44 515.842 483.44H515.09ZM525.993 483.6C524.895 483.6 524.015 483.264 523.353 482.592C522.703 481.91 522.345 480.982 522.281 479.808L522.265 479.264L522.281 478.736C522.356 477.584 522.719 476.667 523.369 475.984C524.031 475.302 524.9 474.96 525.977 474.96C527.161 474.96 528.079 475.339 528.729 476.096C529.38 476.843 529.705 477.856 529.705 479.136V479.408C529.705 479.515 529.668 479.606 529.593 479.68C529.529 479.744 529.444 479.776 529.337 479.776H523.801V479.92C523.833 480.614 524.041 481.206 524.425 481.696C524.82 482.176 525.337 482.416 525.977 482.416C526.468 482.416 526.868 482.32 527.177 482.128C527.497 481.926 527.732 481.718 527.881 481.504C527.977 481.376 528.047 481.302 528.089 481.28C528.143 481.248 528.233 481.232 528.361 481.232H529.145C529.241 481.232 529.321 481.259 529.385 481.312C529.449 481.366 529.481 481.44 529.481 481.536C529.481 481.771 529.332 482.054 529.033 482.384C528.745 482.715 528.335 483.003 527.801 483.248C527.279 483.483 526.676 483.6 525.993 483.6ZM528.185 478.672V478.624C528.185 477.888 527.983 477.291 527.577 476.832C527.183 476.363 526.649 476.128 525.977 476.128C525.305 476.128 524.772 476.363 524.377 476.832C523.993 477.291 523.801 477.888 523.801 478.624V478.672H528.185ZM532.102 483.44C531.996 483.44 531.905 483.408 531.83 483.344C531.766 483.27 531.734 483.179 531.734 483.072V472.448C531.734 472.342 531.766 472.256 531.83 472.192C531.905 472.118 531.996 472.08 532.102 472.08H532.902C533.009 472.08 533.094 472.118 533.158 472.192C533.233 472.256 533.27 472.342 533.27 472.448V476.176C533.58 475.782 533.942 475.483 534.358 475.28C534.774 475.067 535.292 474.96 535.91 474.96C536.934 474.96 537.729 475.291 538.294 475.952C538.87 476.603 539.158 477.472 539.158 478.56V483.072C539.158 483.179 539.121 483.27 539.046 483.344C538.982 483.408 538.897 483.44 538.79 483.44H537.99C537.884 483.44 537.793 483.408 537.718 483.344C537.654 483.27 537.622 483.179 537.622 483.072V478.64C537.622 477.883 537.436 477.296 537.062 476.88C536.7 476.464 536.172 476.256 535.478 476.256C534.806 476.256 534.268 476.47 533.862 476.896C533.468 477.312 533.27 477.894 533.27 478.64V483.072C533.27 483.179 533.233 483.27 533.158 483.344C533.094 483.408 533.009 483.44 532.902 483.44H532.102ZM544.976 483.6C543.803 483.6 542.891 483.27 542.24 482.608C541.6 481.947 541.259 481.067 541.216 479.968L541.2 479.28L541.216 478.592C541.259 477.504 541.606 476.63 542.256 475.968C542.907 475.296 543.814 474.96 544.976 474.96C546.139 474.96 547.046 475.296 547.696 475.968C548.347 476.63 548.694 477.504 548.736 478.592C548.747 478.71 548.752 478.939 548.752 479.28C548.752 479.622 548.747 479.851 548.736 479.968C548.694 481.067 548.347 481.947 547.696 482.608C547.056 483.27 546.15 483.6 544.976 483.6ZM544.976 482.368C545.648 482.368 546.176 482.155 546.56 481.728C546.955 481.302 547.168 480.688 547.2 479.888C547.211 479.782 547.216 479.579 547.216 479.28C547.216 478.982 547.211 478.779 547.2 478.672C547.168 477.872 546.955 477.259 546.56 476.832C546.176 476.406 545.648 476.192 544.976 476.192C544.304 476.192 543.771 476.406 543.376 476.832C542.982 477.259 542.774 477.872 542.752 478.672L542.736 479.28L542.752 479.888C542.774 480.688 542.982 481.302 543.376 481.728C543.771 482.155 544.304 482.368 544.976 482.368ZM551.24 483.44C551.133 483.44 551.043 483.408 550.968 483.344C550.904 483.27 550.872 483.179 550.872 483.072V472.448C550.872 472.342 550.904 472.256 550.968 472.192C551.043 472.118 551.133 472.08 551.24 472.08H551.992C552.099 472.08 552.184 472.118 552.248 472.192C552.323 472.256 552.36 472.342 552.36 472.448V483.072C552.36 483.179 552.323 483.27 552.248 483.344C552.184 483.408 552.099 483.44 551.992 483.44H551.24ZM557.886 483.6C556.777 483.6 555.94 483.238 555.374 482.512C554.809 481.787 554.51 480.87 554.478 479.76L554.462 479.28L554.478 478.8C554.51 477.702 554.809 476.79 555.374 476.064C555.94 475.328 556.777 474.96 557.886 474.96C558.985 474.96 559.849 475.35 560.478 476.128V472.448C560.478 472.342 560.51 472.256 560.574 472.192C560.649 472.118 560.74 472.08 560.846 472.08H561.614C561.721 472.08 561.806 472.118 561.87 472.192C561.945 472.256 561.982 472.342 561.982 472.448V483.072C561.982 483.179 561.945 483.27 561.87 483.344C561.806 483.408 561.721 483.44 561.614 483.44H560.894C560.788 483.44 560.697 483.408 560.622 483.344C560.558 483.27 560.526 483.179 560.526 483.072V482.4C559.908 483.2 559.028 483.6 557.886 483.6ZM558.222 482.304C558.958 482.304 559.508 482.064 559.87 481.584C560.244 481.094 560.446 480.512 560.478 479.84C560.489 479.723 560.494 479.52 560.494 479.232C560.494 478.934 560.489 478.726 560.478 478.608C560.457 477.979 560.254 477.43 559.87 476.96C559.486 476.491 558.937 476.256 558.222 476.256C557.465 476.256 556.91 476.491 556.558 476.96C556.217 477.43 556.03 478.048 555.998 478.816L555.982 479.28C555.982 481.296 556.729 482.304 558.222 482.304ZM567.79 483.6C566.691 483.6 565.811 483.264 565.15 482.592C564.499 481.91 564.142 480.982 564.078 479.808L564.062 479.264L564.078 478.736C564.153 477.584 564.515 476.667 565.166 475.984C565.827 475.302 566.697 474.96 567.774 474.96C568.958 474.96 569.875 475.339 570.526 476.096C571.177 476.843 571.502 477.856 571.502 479.136V479.408C571.502 479.515 571.465 479.606 571.39 479.68C571.326 479.744 571.241 479.776 571.134 479.776H565.598V479.92C565.63 480.614 565.838 481.206 566.222 481.696C566.617 482.176 567.134 482.416 567.774 482.416C568.265 482.416 568.665 482.32 568.974 482.128C569.294 481.926 569.529 481.718 569.678 481.504C569.774 481.376 569.843 481.302 569.886 481.28C569.939 481.248 570.03 481.232 570.158 481.232H570.942C571.038 481.232 571.118 481.259 571.182 481.312C571.246 481.366 571.278 481.44 571.278 481.536C571.278 481.771 571.129 482.054 570.83 482.384C570.542 482.715 570.131 483.003 569.598 483.248C569.075 483.483 568.473 483.6 567.79 483.6ZM569.982 478.672V478.624C569.982 477.888 569.779 477.291 569.374 476.832C568.979 476.363 568.446 476.128 567.774 476.128C567.102 476.128 566.569 476.363 566.174 476.832C565.79 477.291 565.598 477.888 565.598 478.624V478.672H569.982ZM573.883 483.44C573.777 483.44 573.686 483.408 573.611 483.344C573.547 483.27 573.515 483.179 573.515 483.072V475.504C573.515 475.398 573.547 475.307 573.611 475.232C573.686 475.158 573.777 475.12 573.883 475.12H574.619C574.726 475.12 574.817 475.158 574.891 475.232C574.966 475.307 575.003 475.398 575.003 475.504V476.208C575.441 475.483 576.187 475.12 577.243 475.12H577.867C577.974 475.12 578.059 475.158 578.123 475.232C578.198 475.296 578.235 475.382 578.235 475.488V476.144C578.235 476.251 578.198 476.336 578.123 476.4C578.059 476.464 577.974 476.496 577.867 476.496H576.907C576.331 476.496 575.878 476.667 575.547 477.008C575.217 477.339 575.051 477.792 575.051 478.368V483.072C575.051 483.179 575.014 483.27 574.939 483.344C574.865 483.408 574.774 483.44 574.667 483.44H573.883Z" fill="#8D8D8D"></path>
  <ellipse cx="412" cy="501.44" rx="8" ry="8" transform="rotate(90 412 501.44)" fill="#E83A4F"></ellipse>
  <path d="M435.424 509.6C433.995 509.6 432.907 509.216 432.16 508.448C431.424 507.68 431.029 506.619 430.976 505.264C430.965 504.976 430.96 504.507 430.96 503.856C430.96 503.195 430.965 502.715 430.976 502.416C431.029 501.072 431.429 500.016 432.176 499.248C432.923 498.47 434.005 498.08 435.424 498.08C436.373 498.08 437.179 498.251 437.84 498.592C438.501 498.923 439.003 499.36 439.344 499.904C439.685 500.448 439.872 501.03 439.904 501.648V501.68C439.904 501.766 439.867 501.84 439.792 501.904C439.728 501.958 439.653 501.984 439.568 501.984H438.688C438.475 501.984 438.341 501.862 438.288 501.616C438.107 500.816 437.781 500.256 437.312 499.936C436.843 499.606 436.213 499.44 435.424 499.44C433.589 499.44 432.64 500.459 432.576 502.496C432.565 502.784 432.56 503.227 432.56 503.824C432.56 504.422 432.565 504.875 432.576 505.184C432.64 507.222 433.589 508.24 435.424 508.24C436.213 508.24 436.843 508.08 437.312 507.76C437.792 507.43 438.117 506.864 438.288 506.064C438.32 505.926 438.368 505.83 438.432 505.776C438.496 505.723 438.581 505.696 438.688 505.696H439.568C439.664 505.696 439.744 505.728 439.808 505.792C439.883 505.846 439.915 505.92 439.904 506.016C439.872 506.646 439.685 507.232 439.344 507.776C439.003 508.32 438.501 508.763 437.84 509.104C437.179 509.435 436.373 509.6 435.424 509.6ZM445.348 509.6C444.175 509.6 443.263 509.27 442.612 508.608C441.972 507.947 441.631 507.067 441.588 505.968L441.572 505.28L441.588 504.592C441.631 503.504 441.978 502.63 442.628 501.968C443.279 501.296 444.186 500.96 445.348 500.96C446.511 500.96 447.418 501.296 448.068 501.968C448.719 502.63 449.066 503.504 449.108 504.592C449.119 504.71 449.124 504.939 449.124 505.28C449.124 505.622 449.119 505.851 449.108 505.968C449.066 507.067 448.719 507.947 448.068 508.608C447.428 509.27 446.522 509.6 445.348 509.6ZM445.348 508.368C446.02 508.368 446.548 508.155 446.932 507.728C447.327 507.302 447.54 506.688 447.572 505.888C447.583 505.782 447.588 505.579 447.588 505.28C447.588 504.982 447.583 504.779 447.572 504.672C447.54 503.872 447.327 503.259 446.932 502.832C446.548 502.406 446.02 502.192 445.348 502.192C444.676 502.192 444.143 502.406 443.748 502.832C443.354 503.259 443.146 503.872 443.124 504.672L443.108 505.28L443.124 505.888C443.146 506.688 443.354 507.302 443.748 507.728C444.143 508.155 444.676 508.368 445.348 508.368ZM451.596 509.44C451.489 509.44 451.398 509.408 451.324 509.344C451.26 509.27 451.228 509.179 451.228 509.072V501.488C451.228 501.382 451.26 501.296 451.324 501.232C451.398 501.158 451.489 501.12 451.596 501.12H452.348C452.454 501.12 452.54 501.158 452.604 501.232C452.678 501.296 452.716 501.382 452.716 501.488V502.192C453.025 501.798 453.388 501.494 453.804 501.28C454.23 501.067 454.758 500.96 455.388 500.96C456.412 500.96 457.206 501.291 457.772 501.952C458.348 502.603 458.636 503.472 458.636 504.56V509.072C458.636 509.179 458.598 509.27 458.524 509.344C458.46 509.408 458.374 509.44 458.268 509.44H457.468C457.361 509.44 457.27 509.408 457.196 509.344C457.132 509.27 457.1 509.179 457.1 509.072V504.64C457.1 503.883 456.913 503.296 456.54 502.88C456.177 502.464 455.649 502.256 454.956 502.256C454.284 502.256 453.75 502.47 453.356 502.896C452.961 503.312 452.764 503.894 452.764 504.64V509.072C452.764 509.179 452.726 509.27 452.652 509.344C452.588 509.408 452.502 509.44 452.396 509.44H451.596ZM463.911 509.6C463.164 509.6 462.535 509.483 462.023 509.248C461.522 509.003 461.143 508.726 460.887 508.416C460.642 508.107 460.519 507.851 460.519 507.648C460.519 507.542 460.556 507.462 460.631 507.408C460.716 507.344 460.802 507.312 460.887 507.312H461.607C461.714 507.312 461.81 507.366 461.895 507.472C462.151 507.771 462.428 508.006 462.727 508.176C463.026 508.347 463.426 508.432 463.927 508.432C464.482 508.432 464.93 508.326 465.271 508.112C465.623 507.888 465.799 507.584 465.799 507.2C465.799 506.944 465.724 506.736 465.575 506.576C465.436 506.406 465.191 506.262 464.839 506.144C464.498 506.016 463.986 505.878 463.303 505.728C462.375 505.526 461.714 505.232 461.319 504.848C460.935 504.464 460.743 503.968 460.743 503.36C460.743 502.955 460.86 502.571 461.095 502.208C461.34 501.835 461.692 501.536 462.151 501.312C462.62 501.078 463.18 500.96 463.831 500.96C464.514 500.96 465.095 501.072 465.575 501.296C466.055 501.52 466.412 501.787 466.647 502.096C466.892 502.395 467.015 502.646 467.015 502.848C467.015 502.944 466.978 503.024 466.903 503.088C466.839 503.152 466.759 503.184 466.663 503.184H465.991C465.863 503.184 465.756 503.131 465.671 503.024C465.5 502.822 465.351 502.667 465.223 502.56C465.106 502.443 464.93 502.342 464.695 502.256C464.471 502.171 464.183 502.128 463.831 502.128C463.319 502.128 462.924 502.24 462.647 502.464C462.37 502.678 462.231 502.96 462.231 503.312C462.231 503.536 462.29 503.728 462.407 503.888C462.524 504.038 462.748 504.176 463.079 504.304C463.42 504.432 463.911 504.566 464.551 504.704C465.564 504.918 466.279 505.227 466.695 505.632C467.122 506.027 467.335 506.534 467.335 507.152C467.335 507.611 467.202 508.027 466.935 508.4C466.668 508.774 466.274 509.067 465.751 509.28C465.239 509.494 464.626 509.6 463.911 509.6ZM472.391 509.6C471.378 509.6 470.594 509.275 470.039 508.624C469.484 507.963 469.207 507.088 469.207 506V501.488C469.207 501.382 469.239 501.296 469.303 501.232C469.378 501.158 469.468 501.12 469.575 501.12H470.375C470.482 501.12 470.567 501.158 470.631 501.232C470.706 501.296 470.743 501.382 470.743 501.488V505.92C470.743 507.51 471.436 508.304 472.823 508.304C473.495 508.304 474.028 508.096 474.423 507.68C474.818 507.254 475.015 506.667 475.015 505.92V501.488C475.015 501.382 475.047 501.296 475.111 501.232C475.186 501.158 475.276 501.12 475.383 501.12H476.183C476.29 501.12 476.375 501.158 476.439 501.232C476.503 501.296 476.535 501.382 476.535 501.488V509.072C476.535 509.179 476.503 509.27 476.439 509.344C476.375 509.408 476.29 509.44 476.183 509.44H475.431C475.324 509.44 475.234 509.408 475.159 509.344C475.095 509.27 475.063 509.179 475.063 509.072V508.368C474.764 508.774 474.402 509.083 473.975 509.296C473.548 509.499 473.02 509.6 472.391 509.6ZM479.396 509.44C479.289 509.44 479.199 509.408 479.124 509.344C479.06 509.27 479.028 509.179 479.028 509.072V498.448C479.028 498.342 479.06 498.256 479.124 498.192C479.199 498.118 479.289 498.08 479.396 498.08H480.148C480.255 498.08 480.34 498.118 480.404 498.192C480.479 498.256 480.516 498.342 480.516 498.448V509.072C480.516 509.179 480.479 509.27 480.404 509.344C480.34 509.408 480.255 509.44 480.148 509.44H479.396ZM486.251 509.44C484.565 509.44 483.723 508.502 483.723 506.624V502.4H482.475C482.368 502.4 482.277 502.368 482.203 502.304C482.139 502.23 482.107 502.139 482.107 502.032V501.488C482.107 501.382 482.139 501.296 482.203 501.232C482.277 501.158 482.368 501.12 482.475 501.12H483.723V498.448C483.723 498.342 483.755 498.256 483.819 498.192C483.893 498.118 483.984 498.08 484.091 498.08H484.843C484.949 498.08 485.035 498.118 485.099 498.192C485.173 498.256 485.211 498.342 485.211 498.448V501.12H487.195C487.301 501.12 487.387 501.158 487.451 501.232C487.525 501.296 487.563 501.382 487.563 501.488V502.032C487.563 502.139 487.525 502.23 487.451 502.304C487.387 502.368 487.301 502.4 487.195 502.4H485.211V506.512C485.211 507.046 485.301 507.451 485.483 507.728C485.664 507.995 485.963 508.128 486.379 508.128H487.355C487.461 508.128 487.547 508.166 487.611 508.24C487.685 508.304 487.723 508.39 487.723 508.496V509.072C487.723 509.179 487.685 509.27 487.611 509.344C487.547 509.408 487.461 509.44 487.355 509.44H486.251ZM491.673 509.6C491.15 509.6 490.665 509.494 490.217 509.28C489.769 509.067 489.411 508.779 489.145 508.416C488.889 508.043 488.761 507.632 488.761 507.184C488.761 506.48 489.049 505.904 489.625 505.456C490.211 504.998 491.001 504.699 491.993 504.56L494.377 504.224V503.76C494.377 502.672 493.753 502.128 492.505 502.128C492.035 502.128 491.651 502.23 491.353 502.432C491.054 502.624 490.83 502.854 490.681 503.12C490.649 503.216 490.606 503.286 490.553 503.328C490.51 503.371 490.446 503.392 490.361 503.392H489.673C489.577 503.392 489.491 503.36 489.417 503.296C489.353 503.222 489.321 503.136 489.321 503.04C489.331 502.784 489.449 502.496 489.673 502.176C489.907 501.846 490.265 501.563 490.745 501.328C491.225 501.083 491.817 500.96 492.521 500.96C493.715 500.96 494.574 501.243 495.097 501.808C495.619 502.363 495.881 503.056 495.881 503.888V509.072C495.881 509.179 495.843 509.27 495.769 509.344C495.705 509.408 495.619 509.44 495.513 509.44H494.777C494.67 509.44 494.579 509.408 494.505 509.344C494.441 509.27 494.409 509.179 494.409 509.072V508.384C494.174 508.726 493.833 509.014 493.385 509.248C492.937 509.483 492.366 509.6 491.673 509.6ZM492.009 508.4C492.702 508.4 493.267 508.176 493.705 507.728C494.153 507.27 494.377 506.614 494.377 505.76V505.312L492.521 505.584C491.763 505.691 491.193 505.872 490.809 506.128C490.425 506.374 490.233 506.688 490.233 507.072C490.233 507.499 490.409 507.83 490.761 508.064C491.113 508.288 491.529 508.4 492.009 508.4ZM498.649 509.44C498.542 509.44 498.452 509.408 498.377 509.344C498.313 509.27 498.281 509.179 498.281 509.072V501.488C498.281 501.382 498.313 501.296 498.377 501.232C498.452 501.158 498.542 501.12 498.649 501.12H499.401C499.508 501.12 499.593 501.158 499.657 501.232C499.732 501.296 499.769 501.382 499.769 501.488V502.192C500.078 501.798 500.441 501.494 500.857 501.28C501.284 501.067 501.812 500.96 502.441 500.96C503.465 500.96 504.26 501.291 504.825 501.952C505.401 502.603 505.689 503.472 505.689 504.56V509.072C505.689 509.179 505.652 509.27 505.577 509.344C505.513 509.408 505.428 509.44 505.321 509.44H504.521C504.414 509.44 504.324 509.408 504.249 509.344C504.185 509.27 504.153 509.179 504.153 509.072V504.64C504.153 503.883 503.966 503.296 503.593 502.88C503.23 502.464 502.702 502.256 502.009 502.256C501.337 502.256 500.804 502.47 500.409 502.896C500.014 503.312 499.817 503.894 499.817 504.64V509.072C499.817 509.179 499.78 509.27 499.705 509.344C499.641 509.408 499.556 509.44 499.449 509.44H498.649ZM511.223 509.44C509.537 509.44 508.695 508.502 508.695 506.624V502.4H507.447C507.34 502.4 507.249 502.368 507.175 502.304C507.111 502.23 507.079 502.139 507.079 502.032V501.488C507.079 501.382 507.111 501.296 507.175 501.232C507.249 501.158 507.34 501.12 507.447 501.12H508.695V498.448C508.695 498.342 508.727 498.256 508.791 498.192C508.865 498.118 508.956 498.08 509.063 498.08H509.815C509.921 498.08 510.007 498.118 510.071 498.192C510.145 498.256 510.183 498.342 510.183 498.448V501.12H512.167C512.273 501.12 512.359 501.158 512.423 501.232C512.497 501.296 512.535 501.382 512.535 501.488V502.032C512.535 502.139 512.497 502.23 512.423 502.304C512.359 502.368 512.273 502.4 512.167 502.4H510.183V506.512C510.183 507.046 510.273 507.451 510.455 507.728C510.636 507.995 510.935 508.128 511.351 508.128H512.327C512.433 508.128 512.519 508.166 512.583 508.24C512.657 508.304 512.695 508.39 512.695 508.496V509.072C512.695 509.179 512.657 509.27 512.583 509.344C512.519 509.408 512.433 509.44 512.327 509.44H511.223ZM517.205 509.6C516.458 509.6 515.829 509.483 515.317 509.248C514.815 509.003 514.437 508.726 514.181 508.416C513.935 508.107 513.813 507.851 513.813 507.648C513.813 507.542 513.85 507.462 513.925 507.408C514.01 507.344 514.095 507.312 514.181 507.312H514.901C515.007 507.312 515.103 507.366 515.189 507.472C515.445 507.771 515.722 508.006 516.021 508.176C516.319 508.347 516.719 508.432 517.221 508.432C517.775 508.432 518.223 508.326 518.565 508.112C518.917 507.888 519.093 507.584 519.093 507.2C519.093 506.944 519.018 506.736 518.869 506.576C518.73 506.406 518.485 506.262 518.133 506.144C517.791 506.016 517.279 505.878 516.597 505.728C515.669 505.526 515.007 505.232 514.613 504.848C514.229 504.464 514.037 503.968 514.037 503.36C514.037 502.955 514.154 502.571 514.389 502.208C514.634 501.835 514.986 501.536 515.445 501.312C515.914 501.078 516.474 500.96 517.125 500.96C517.807 500.96 518.389 501.072 518.869 501.296C519.349 501.52 519.706 501.787 519.941 502.096C520.186 502.395 520.309 502.646 520.309 502.848C520.309 502.944 520.271 503.024 520.197 503.088C520.133 503.152 520.053 503.184 519.957 503.184H519.285C519.157 503.184 519.05 503.131 518.965 503.024C518.794 502.822 518.645 502.667 518.517 502.56C518.399 502.443 518.223 502.342 517.989 502.256C517.765 502.171 517.477 502.128 517.125 502.128C516.613 502.128 516.218 502.24 515.941 502.464C515.663 502.678 515.525 502.96 515.525 503.312C515.525 503.536 515.583 503.728 515.701 503.888C515.818 504.038 516.042 504.176 516.373 504.304C516.714 504.432 517.205 504.566 517.845 504.704C518.858 504.918 519.573 505.227 519.989 505.632C520.415 506.027 520.629 506.534 520.629 507.152C520.629 507.611 520.495 508.027 520.229 508.4C519.962 508.774 519.567 509.067 519.045 509.28C518.533 509.494 517.919 509.6 517.205 509.6Z" fill="#8D8D8D"></path>
  <ellipse cx="412" cy="529.44" rx="8" ry="8" transform="rotate(90 412 529.44)" fill="#008786"></ellipse>
  <path d="M431.76 535.44C431.653 535.44 431.563 535.408 431.488 535.344C431.424 535.27 431.392 535.179 431.392 535.072V524.624C431.392 524.507 431.424 524.416 431.488 524.352C431.563 524.278 431.653 524.24 431.76 524.24H435.392C437.003 524.24 438.165 524.603 438.88 525.328C439.595 526.043 439.968 527.126 440 528.576C440.011 528.886 440.016 529.302 440.016 529.824C440.016 530.347 440.011 530.768 440 531.088C439.968 532.102 439.797 532.928 439.488 533.568C439.189 534.198 438.715 534.667 438.064 534.976C437.413 535.286 436.549 535.44 435.472 535.44H431.76ZM435.392 534.08C436.128 534.08 436.709 533.979 437.136 533.776C437.573 533.574 437.888 533.254 438.08 532.816C438.283 532.368 438.395 531.771 438.416 531.024C438.437 530.384 438.448 529.984 438.448 529.824C438.448 529.654 438.437 529.259 438.416 528.64C438.395 527.584 438.144 526.816 437.664 526.336C437.184 525.846 436.4 525.6 435.312 525.6H432.96V534.08H435.392ZM444.635 535.6C444.113 535.6 443.627 535.494 443.179 535.28C442.731 535.067 442.374 534.779 442.107 534.416C441.851 534.043 441.723 533.632 441.723 533.184C441.723 532.48 442.011 531.904 442.587 531.456C443.174 530.998 443.963 530.699 444.955 530.56L447.339 530.224V529.76C447.339 528.672 446.715 528.128 445.467 528.128C444.998 528.128 444.614 528.23 444.315 528.432C444.017 528.624 443.793 528.854 443.643 529.12C443.611 529.216 443.569 529.286 443.515 529.328C443.473 529.371 443.409 529.392 443.323 529.392H442.635C442.539 529.392 442.454 529.36 442.379 529.296C442.315 529.222 442.283 529.136 442.283 529.04C442.294 528.784 442.411 528.496 442.635 528.176C442.87 527.846 443.227 527.563 443.707 527.328C444.187 527.083 444.779 526.96 445.483 526.96C446.678 526.96 447.537 527.243 448.059 527.808C448.582 528.363 448.843 529.056 448.843 529.888V535.072C448.843 535.179 448.806 535.27 448.731 535.344C448.667 535.408 448.582 535.44 448.475 535.44H447.739C447.633 535.44 447.542 535.408 447.467 535.344C447.403 535.27 447.371 535.179 447.371 535.072V534.384C447.137 534.726 446.795 535.014 446.347 535.248C445.899 535.483 445.329 535.6 444.635 535.6ZM444.971 534.4C445.665 534.4 446.23 534.176 446.667 533.728C447.115 533.27 447.339 532.614 447.339 531.76V531.312L445.483 531.584C444.726 531.691 444.155 531.872 443.771 532.128C443.387 532.374 443.195 532.688 443.195 533.072C443.195 533.499 443.371 533.83 443.723 534.064C444.075 534.288 444.491 534.4 444.971 534.4ZM454.413 535.44C452.728 535.44 451.885 534.502 451.885 532.624V528.4H450.637C450.531 528.4 450.44 528.368 450.365 528.304C450.301 528.23 450.269 528.139 450.269 528.032V527.488C450.269 527.382 450.301 527.296 450.365 527.232C450.44 527.158 450.531 527.12 450.637 527.12H451.885V524.448C451.885 524.342 451.917 524.256 451.981 524.192C452.056 524.118 452.147 524.08 452.253 524.08H453.005C453.112 524.08 453.197 524.118 453.261 524.192C453.336 524.256 453.373 524.342 453.373 524.448V527.12H455.357C455.464 527.12 455.549 527.158 455.613 527.232C455.688 527.296 455.725 527.382 455.725 527.488V528.032C455.725 528.139 455.688 528.23 455.613 528.304C455.549 528.368 455.464 528.4 455.357 528.4H453.373V532.512C453.373 533.046 453.464 533.451 453.645 533.728C453.827 533.995 454.125 534.128 454.541 534.128H455.517C455.624 534.128 455.709 534.166 455.773 534.24C455.848 534.304 455.885 534.39 455.885 534.496V535.072C455.885 535.179 455.848 535.27 455.773 535.344C455.709 535.408 455.624 535.44 455.517 535.44H454.413ZM459.835 535.6C459.313 535.6 458.827 535.494 458.379 535.28C457.931 535.067 457.574 534.779 457.307 534.416C457.051 534.043 456.923 533.632 456.923 533.184C456.923 532.48 457.211 531.904 457.787 531.456C458.374 530.998 459.163 530.699 460.155 530.56L462.539 530.224V529.76C462.539 528.672 461.915 528.128 460.667 528.128C460.198 528.128 459.814 528.23 459.515 528.432C459.217 528.624 458.993 528.854 458.843 529.12C458.811 529.216 458.769 529.286 458.715 529.328C458.673 529.371 458.609 529.392 458.523 529.392H457.835C457.739 529.392 457.654 529.36 457.579 529.296C457.515 529.222 457.483 529.136 457.483 529.04C457.494 528.784 457.611 528.496 457.835 528.176C458.07 527.846 458.427 527.563 458.907 527.328C459.387 527.083 459.979 526.96 460.683 526.96C461.878 526.96 462.737 527.243 463.259 527.808C463.782 528.363 464.043 529.056 464.043 529.888V535.072C464.043 535.179 464.006 535.27 463.931 535.344C463.867 535.408 463.782 535.44 463.675 535.44H462.939C462.833 535.44 462.742 535.408 462.667 535.344C462.603 535.27 462.571 535.179 462.571 535.072V534.384C462.337 534.726 461.995 535.014 461.547 535.248C461.099 535.483 460.529 535.6 459.835 535.6ZM460.171 534.4C460.865 534.4 461.43 534.176 461.867 533.728C462.315 533.27 462.539 532.614 462.539 531.76V531.312L460.683 531.584C459.926 531.691 459.355 531.872 458.971 532.128C458.587 532.374 458.395 532.688 458.395 533.072C458.395 533.499 458.571 533.83 458.923 534.064C459.275 534.288 459.691 534.4 460.171 534.4Z" fill="#8D8D8D"></path>
  <ellipse cx="412" cy="556.44" rx="8" ry="8" transform="rotate(90 412 556.44)" fill="#F0800E"></ellipse>
  <path d="M435.472 561.16C434.075 561.16 432.987 560.781 432.208 560.024C431.44 559.256 431.029 558.211 430.976 556.888C430.965 556.568 430.96 556.067 430.96 555.384C430.96 554.691 430.965 554.189 430.976 553.88C431.029 552.568 431.445 551.533 432.224 550.776C433.003 550.019 434.085 549.64 435.472 549.64C436.411 549.64 437.205 549.811 437.856 550.152C438.517 550.483 439.013 550.888 439.344 551.368C439.675 551.848 439.851 552.296 439.872 552.712V552.744C439.872 552.829 439.84 552.899 439.776 552.952C439.712 553.005 439.632 553.032 439.536 553.032H438.592C438.485 553.032 438.405 553.016 438.352 552.984C438.309 552.941 438.267 552.861 438.224 552.744C438.064 552.264 437.755 551.853 437.296 551.512C436.848 551.171 436.24 551 435.472 551C434.587 551 433.893 551.24 433.392 551.72C432.891 552.2 432.619 552.947 432.576 553.96C432.565 554.269 432.56 554.744 432.56 555.384C432.56 556.013 432.565 556.488 432.576 556.808C432.619 557.832 432.891 558.589 433.392 559.08C433.893 559.56 434.587 559.8 435.472 559.8C436.368 559.8 437.083 559.555 437.616 559.064C438.149 558.573 438.416 557.837 438.416 556.856V556.184H436.016C435.909 556.184 435.819 556.152 435.744 556.088C435.68 556.013 435.648 555.917 435.648 555.8V555.288C435.648 555.181 435.68 555.091 435.744 555.016C435.819 554.941 435.909 554.904 436.016 554.904H439.632C439.739 554.904 439.824 554.941 439.888 555.016C439.963 555.08 440 555.171 440 555.288V556.824C440 557.699 439.819 558.461 439.456 559.112C439.093 559.763 438.571 560.269 437.888 560.632C437.205 560.984 436.4 561.16 435.472 561.16ZM445.503 561.16C444.404 561.16 443.524 560.824 442.863 560.152C442.212 559.469 441.855 558.541 441.791 557.368L441.775 556.824L441.791 556.296C441.865 555.144 442.228 554.227 442.879 553.544C443.54 552.861 444.409 552.52 445.487 552.52C446.671 552.52 447.588 552.899 448.239 553.656C448.889 554.403 449.215 555.416 449.215 556.696V556.968C449.215 557.075 449.177 557.165 449.103 557.24C449.039 557.304 448.953 557.336 448.847 557.336H443.311V557.48C443.343 558.173 443.551 558.765 443.935 559.256C444.329 559.736 444.847 559.976 445.487 559.976C445.977 559.976 446.377 559.88 446.687 559.688C447.007 559.485 447.241 559.277 447.391 559.064C447.487 558.936 447.556 558.861 447.599 558.84C447.652 558.808 447.743 558.792 447.871 558.792H448.655C448.751 558.792 448.831 558.819 448.895 558.872C448.959 558.925 448.991 559 448.991 559.096C448.991 559.331 448.841 559.613 448.543 559.944C448.255 560.275 447.844 560.563 447.311 560.808C446.788 561.043 446.185 561.16 445.503 561.16ZM447.695 556.232V556.184C447.695 555.448 447.492 554.851 447.087 554.392C446.692 553.923 446.159 553.688 445.487 553.688C444.815 553.688 444.281 553.923 443.887 554.392C443.503 554.851 443.311 555.448 443.311 556.184V556.232H447.695ZM454.636 561.16C453.462 561.16 452.55 560.829 451.9 560.168C451.26 559.507 450.918 558.627 450.876 557.528L450.86 556.84L450.876 556.152C450.918 555.064 451.265 554.189 451.916 553.528C452.566 552.856 453.473 552.52 454.636 552.52C455.798 552.52 456.705 552.856 457.356 553.528C458.006 554.189 458.353 555.064 458.396 556.152C458.406 556.269 458.412 556.499 458.412 556.84C458.412 557.181 458.406 557.411 458.396 557.528C458.353 558.627 458.006 559.507 457.356 560.168C456.716 560.829 455.809 561.16 454.636 561.16ZM454.636 559.928C455.308 559.928 455.836 559.715 456.22 559.288C456.614 558.861 456.828 558.248 456.86 557.448C456.87 557.341 456.876 557.139 456.876 556.84C456.876 556.541 456.87 556.339 456.86 556.232C456.828 555.432 456.614 554.819 456.22 554.392C455.836 553.965 455.308 553.752 454.636 553.752C453.964 553.752 453.43 553.965 453.036 554.392C452.641 554.819 452.433 555.432 452.412 556.232L452.396 556.84L452.412 557.448C452.433 558.248 452.641 558.861 453.036 559.288C453.43 559.715 453.964 559.928 454.636 559.928ZM465.113 561C465.006 561 464.916 560.968 464.841 560.904C464.777 560.829 464.745 560.739 464.745 560.632V550.184C464.745 550.067 464.777 549.976 464.841 549.912C464.916 549.837 465.006 549.8 465.113 549.8H469.177C470.382 549.8 471.332 550.093 472.025 550.68C472.718 551.267 473.065 552.115 473.065 553.224C473.065 554.333 472.718 555.181 472.025 555.768C471.342 556.344 470.393 556.632 469.177 556.632H466.345V560.632C466.345 560.739 466.308 560.829 466.233 560.904C466.158 560.968 466.068 561 465.961 561H465.113ZM469.097 555.288C469.876 555.288 470.462 555.112 470.857 554.76C471.262 554.408 471.465 553.896 471.465 553.224C471.465 552.552 471.268 552.04 470.873 551.688C470.478 551.325 469.886 551.144 469.097 551.144H466.329V555.288H469.097ZM475.271 561C475.164 561 475.073 560.968 474.999 560.904C474.935 560.829 474.903 560.739 474.903 560.632V553.064C474.903 552.957 474.935 552.867 474.999 552.792C475.073 552.717 475.164 552.68 475.271 552.68H476.007C476.113 552.68 476.204 552.717 476.279 552.792C476.353 552.867 476.391 552.957 476.391 553.064V553.768C476.828 553.043 477.575 552.68 478.631 552.68H479.255C479.361 552.68 479.447 552.717 479.511 552.792C479.585 552.856 479.623 552.941 479.623 553.048V553.704C479.623 553.811 479.585 553.896 479.511 553.96C479.447 554.024 479.361 554.056 479.255 554.056H478.295C477.719 554.056 477.265 554.227 476.935 554.568C476.604 554.899 476.439 555.352 476.439 555.928V560.632C476.439 560.739 476.401 560.829 476.327 560.904C476.252 560.968 476.161 561 476.055 561H475.271ZM484.333 561.16C483.159 561.16 482.247 560.829 481.597 560.168C480.957 559.507 480.615 558.627 480.573 557.528L480.557 556.84L480.573 556.152C480.615 555.064 480.962 554.189 481.613 553.528C482.263 552.856 483.17 552.52 484.333 552.52C485.495 552.52 486.402 552.856 487.053 553.528C487.703 554.189 488.05 555.064 488.093 556.152C488.103 556.269 488.109 556.499 488.109 556.84C488.109 557.181 488.103 557.411 488.093 557.528C488.05 558.627 487.703 559.507 487.053 560.168C486.413 560.829 485.506 561.16 484.333 561.16ZM484.333 559.928C485.005 559.928 485.533 559.715 485.917 559.288C486.311 558.861 486.525 558.248 486.557 557.448C486.567 557.341 486.573 557.139 486.573 556.84C486.573 556.541 486.567 556.339 486.557 556.232C486.525 555.432 486.311 554.819 485.917 554.392C485.533 553.965 485.005 553.752 484.333 553.752C483.661 553.752 483.127 553.965 482.733 554.392C482.338 554.819 482.13 555.432 482.109 556.232L482.093 556.84L482.109 557.448C482.13 558.248 482.338 558.861 482.733 559.288C483.127 559.715 483.661 559.928 484.333 559.928ZM493.572 561.16C492.431 561.16 491.535 560.84 490.884 560.2C490.244 559.549 489.903 558.643 489.86 557.48L489.844 556.84L489.86 556.2C489.903 555.037 490.244 554.136 490.884 553.496C491.535 552.845 492.431 552.52 493.572 552.52C494.34 552.52 494.991 552.659 495.524 552.936C496.057 553.213 496.452 553.555 496.708 553.96C496.975 554.365 497.119 554.771 497.14 555.176C497.151 555.283 497.119 555.368 497.044 555.432C496.969 555.496 496.879 555.528 496.772 555.528H496.004C495.897 555.528 495.817 555.507 495.764 555.464C495.711 555.421 495.657 555.336 495.604 555.208C495.423 554.696 495.167 554.333 494.836 554.12C494.505 553.896 494.089 553.784 493.588 553.784C492.927 553.784 492.399 553.992 492.004 554.408C491.62 554.813 491.412 555.437 491.38 556.28L491.364 556.856L491.38 557.4C491.412 558.253 491.62 558.883 492.004 559.288C492.388 559.693 492.916 559.896 493.588 559.896C494.089 559.896 494.505 559.789 494.836 559.576C495.167 559.352 495.423 558.984 495.604 558.472C495.657 558.344 495.711 558.259 495.764 558.216C495.817 558.163 495.897 558.136 496.004 558.136H496.772C496.879 558.136 496.969 558.173 497.044 558.248C497.119 558.312 497.151 558.397 497.14 558.504C497.119 558.899 496.975 559.304 496.708 559.72C496.452 560.125 496.057 560.467 495.524 560.744C495.001 561.021 494.351 561.16 493.572 561.16ZM502.468 561.16C501.37 561.16 500.49 560.824 499.828 560.152C499.178 559.469 498.82 558.541 498.756 557.368L498.74 556.824L498.756 556.296C498.831 555.144 499.194 554.227 499.844 553.544C500.506 552.861 501.375 552.52 502.452 552.52C503.636 552.52 504.554 552.899 505.204 553.656C505.855 554.403 506.18 555.416 506.18 556.696V556.968C506.18 557.075 506.143 557.165 506.068 557.24C506.004 557.304 505.919 557.336 505.812 557.336H500.276V557.48C500.308 558.173 500.516 558.765 500.9 559.256C501.295 559.736 501.812 559.976 502.452 559.976C502.943 559.976 503.343 559.88 503.652 559.688C503.972 559.485 504.207 559.277 504.356 559.064C504.452 558.936 504.522 558.861 504.564 558.84C504.618 558.808 504.708 558.792 504.836 558.792H505.62C505.716 558.792 505.796 558.819 505.86 558.872C505.924 558.925 505.956 559 505.956 559.096C505.956 559.331 505.807 559.613 505.508 559.944C505.22 560.275 504.81 560.563 504.276 560.808C503.754 561.043 503.151 561.16 502.468 561.16ZM504.66 556.232V556.184C504.66 555.448 504.458 554.851 504.052 554.392C503.658 553.923 503.124 553.688 502.452 553.688C501.78 553.688 501.247 553.923 500.852 554.392C500.468 554.851 500.276 555.448 500.276 556.184V556.232H504.66ZM511.073 561.16C510.327 561.16 509.697 561.043 509.185 560.808C508.684 560.563 508.305 560.285 508.049 559.976C507.804 559.667 507.681 559.411 507.681 559.208C507.681 559.101 507.719 559.021 507.793 558.968C507.879 558.904 507.964 558.872 508.049 558.872H508.769C508.876 558.872 508.972 558.925 509.057 559.032C509.313 559.331 509.591 559.565 509.889 559.736C510.188 559.907 510.588 559.992 511.089 559.992C511.644 559.992 512.092 559.885 512.433 559.672C512.785 559.448 512.961 559.144 512.961 558.76C512.961 558.504 512.887 558.296 512.737 558.136C512.599 557.965 512.353 557.821 512.001 557.704C511.66 557.576 511.148 557.437 510.465 557.288C509.537 557.085 508.876 556.792 508.481 556.408C508.097 556.024 507.905 555.528 507.905 554.92C507.905 554.515 508.023 554.131 508.257 553.768C508.503 553.395 508.855 553.096 509.313 552.872C509.783 552.637 510.343 552.52 510.993 552.52C511.676 552.52 512.257 552.632 512.737 552.856C513.217 553.08 513.575 553.347 513.809 553.656C514.055 553.955 514.177 554.205 514.177 554.408C514.177 554.504 514.14 554.584 514.065 554.648C514.001 554.712 513.921 554.744 513.825 554.744H513.153C513.025 554.744 512.919 554.691 512.833 554.584C512.663 554.381 512.513 554.227 512.385 554.12C512.268 554.003 512.092 553.901 511.857 553.816C511.633 553.731 511.345 553.688 510.993 553.688C510.481 553.688 510.087 553.8 509.809 554.024C509.532 554.237 509.393 554.52 509.393 554.872C509.393 555.096 509.452 555.288 509.569 555.448C509.687 555.597 509.911 555.736 510.241 555.864C510.583 555.992 511.073 556.125 511.713 556.264C512.727 556.477 513.441 556.787 513.857 557.192C514.284 557.587 514.497 558.093 514.497 558.712C514.497 559.171 514.364 559.587 514.097 559.96C513.831 560.333 513.436 560.627 512.913 560.84C512.401 561.053 511.788 561.16 511.073 561.16ZM519.33 561.16C518.583 561.16 517.954 561.043 517.442 560.808C516.94 560.563 516.562 560.285 516.306 559.976C516.06 559.667 515.938 559.411 515.938 559.208C515.938 559.101 515.975 559.021 516.05 558.968C516.135 558.904 516.22 558.872 516.306 558.872H517.026C517.132 558.872 517.228 558.925 517.314 559.032C517.57 559.331 517.847 559.565 518.146 559.736C518.444 559.907 518.844 559.992 519.346 559.992C519.9 559.992 520.348 559.885 520.69 559.672C521.042 559.448 521.218 559.144 521.218 558.76C521.218 558.504 521.143 558.296 520.994 558.136C520.855 557.965 520.61 557.821 520.258 557.704C519.916 557.576 519.404 557.437 518.722 557.288C517.794 557.085 517.132 556.792 516.738 556.408C516.354 556.024 516.162 555.528 516.162 554.92C516.162 554.515 516.279 554.131 516.514 553.768C516.759 553.395 517.111 553.096 517.57 552.872C518.039 552.637 518.599 552.52 519.25 552.52C519.932 552.52 520.514 552.632 520.994 552.856C521.474 553.08 521.831 553.347 522.066 553.656C522.311 553.955 522.434 554.205 522.434 554.408C522.434 554.504 522.396 554.584 522.322 554.648C522.258 554.712 522.178 554.744 522.082 554.744H521.41C521.282 554.744 521.175 554.691 521.09 554.584C520.919 554.381 520.77 554.227 520.642 554.12C520.524 554.003 520.348 553.901 520.114 553.816C519.89 553.731 519.602 553.688 519.25 553.688C518.738 553.688 518.343 553.8 518.066 554.024C517.788 554.237 517.65 554.52 517.65 554.872C517.65 555.096 517.708 555.288 517.826 555.448C517.943 555.597 518.167 555.736 518.498 555.864C518.839 555.992 519.33 556.125 519.97 556.264C520.983 556.477 521.698 556.787 522.114 557.192C522.54 557.587 522.754 558.093 522.754 558.712C522.754 559.171 522.62 559.587 522.354 559.96C522.087 560.333 521.692 560.627 521.17 560.84C520.658 561.053 520.044 561.16 519.33 561.16ZM524.946 551.128C524.839 551.128 524.749 551.096 524.674 551.032C524.61 550.957 524.578 550.867 524.578 550.76V549.896C524.578 549.789 524.61 549.699 524.674 549.624C524.749 549.549 524.839 549.512 524.946 549.512H525.954C526.061 549.512 526.151 549.549 526.226 549.624C526.301 549.699 526.338 549.789 526.338 549.896V550.76C526.338 550.867 526.301 550.957 526.226 551.032C526.151 551.096 526.061 551.128 525.954 551.128H524.946ZM525.074 561C524.967 561 524.877 560.968 524.802 560.904C524.738 560.829 524.706 560.739 524.706 560.632V553.048C524.706 552.941 524.738 552.856 524.802 552.792C524.877 552.717 524.967 552.68 525.074 552.68H525.842C525.949 552.68 526.034 552.717 526.098 552.792C526.173 552.856 526.21 552.941 526.21 553.048V560.632C526.21 560.739 526.173 560.829 526.098 560.904C526.034 560.968 525.949 561 525.842 561H525.074ZM529.049 561C528.942 561 528.852 560.968 528.777 560.904C528.713 560.829 528.681 560.739 528.681 560.632V553.048C528.681 552.941 528.713 552.856 528.777 552.792C528.852 552.717 528.942 552.68 529.049 552.68H529.801C529.908 552.68 529.993 552.717 530.057 552.792C530.132 552.856 530.169 552.941 530.169 553.048V553.752C530.478 553.357 530.841 553.053 531.257 552.84C531.684 552.627 532.212 552.52 532.841 552.52C533.865 552.52 534.66 552.851 535.225 553.512C535.801 554.163 536.089 555.032 536.089 556.12V560.632C536.089 560.739 536.052 560.829 535.977 560.904C535.913 560.968 535.828 561 535.721 561H534.921C534.814 561 534.724 560.968 534.649 560.904C534.585 560.829 534.553 560.739 534.553 560.632V556.2C534.553 555.443 534.366 554.856 533.993 554.44C533.63 554.024 533.102 553.816 532.409 553.816C531.737 553.816 531.204 554.029 530.809 554.456C530.414 554.872 530.217 555.453 530.217 556.2V560.632C530.217 560.739 530.18 560.829 530.105 560.904C530.041 560.968 529.956 561 529.849 561H529.049ZM541.892 564.52C541.017 564.52 540.313 564.371 539.78 564.072C539.247 563.784 538.868 563.453 538.644 563.08C538.42 562.707 538.297 562.371 538.276 562.072C538.265 561.965 538.297 561.875 538.372 561.8C538.457 561.725 538.548 561.688 538.644 561.688H539.412C539.508 561.688 539.588 561.709 539.652 561.752C539.716 561.805 539.769 561.896 539.812 562.024C539.94 562.365 540.148 562.659 540.436 562.904C540.735 563.16 541.193 563.288 541.812 563.288C542.601 563.288 543.183 563.117 543.556 562.776C543.929 562.445 544.116 561.853 544.116 561V559.912C543.839 560.264 543.487 560.547 543.06 560.76C542.633 560.963 542.127 561.064 541.54 561.064C540.409 561.064 539.561 560.707 538.996 559.992C538.441 559.267 538.148 558.349 538.116 557.24L538.1 556.792L538.116 556.36C538.148 555.261 538.447 554.349 539.012 553.624C539.577 552.888 540.42 552.52 541.54 552.52C542.66 552.52 543.535 552.931 544.164 553.752V553.064C544.164 552.957 544.196 552.867 544.26 552.792C544.335 552.717 544.425 552.68 544.532 552.68H545.268C545.375 552.68 545.465 552.717 545.54 552.792C545.615 552.867 545.652 552.957 545.652 553.064V560.824C545.652 563.288 544.399 564.52 541.892 564.52ZM541.86 559.784C542.585 559.784 543.135 559.544 543.508 559.064C543.881 558.584 544.084 558.013 544.116 557.352C544.127 557.256 544.132 557.069 544.132 556.792C544.132 556.525 544.127 556.344 544.116 556.248C544.084 555.587 543.881 555.016 543.508 554.536C543.145 554.056 542.596 553.816 541.86 553.816C541.103 553.816 540.553 554.051 540.212 554.52C539.871 554.989 539.684 555.608 539.652 556.376L539.636 556.792L539.652 557.224C539.684 557.981 539.871 558.6 540.212 559.08C540.553 559.549 541.103 559.784 541.86 559.784ZM554.771 561C554.664 561 554.573 560.968 554.499 560.904C554.435 560.829 554.403 560.739 554.403 560.632V551.224H551.331C551.224 551.224 551.133 551.192 551.059 551.128C550.995 551.053 550.963 550.963 550.963 550.856V550.184C550.963 550.077 550.995 549.987 551.059 549.912C551.133 549.837 551.224 549.8 551.331 549.8H559.043C559.16 549.8 559.251 549.837 559.315 549.912C559.389 549.976 559.427 550.067 559.427 550.184V550.856C559.427 550.963 559.389 551.053 559.315 551.128C559.24 551.192 559.149 551.224 559.043 551.224H555.987V560.632C555.987 560.739 555.949 560.829 555.875 560.904C555.8 560.968 555.709 561 555.603 561H554.771ZM562.989 561.16C561.816 561.16 560.904 560.829 560.253 560.168C559.613 559.507 559.272 558.627 559.229 557.528L559.213 556.84L559.229 556.152C559.272 555.064 559.618 554.189 560.269 553.528C560.92 552.856 561.826 552.52 562.989 552.52C564.152 552.52 565.058 552.856 565.709 553.528C566.36 554.189 566.706 555.064 566.749 556.152C566.76 556.269 566.765 556.499 566.765 556.84C566.765 557.181 566.76 557.411 566.749 557.528C566.706 558.627 566.36 559.507 565.709 560.168C565.069 560.829 564.162 561.16 562.989 561.16ZM562.989 559.928C563.661 559.928 564.189 559.715 564.573 559.288C564.968 558.861 565.181 558.248 565.213 557.448C565.224 557.341 565.229 557.139 565.229 556.84C565.229 556.541 565.224 556.339 565.213 556.232C565.181 555.432 564.968 554.819 564.573 554.392C564.189 553.965 563.661 553.752 562.989 553.752C562.317 553.752 561.784 553.965 561.389 554.392C560.994 554.819 560.786 555.432 560.765 556.232L560.749 556.84L560.765 557.448C560.786 558.248 560.994 558.861 561.389 559.288C561.784 559.715 562.317 559.928 562.989 559.928ZM572.276 561.16C571.103 561.16 570.191 560.829 569.54 560.168C568.9 559.507 568.559 558.627 568.516 557.528L568.5 556.84L568.516 556.152C568.559 555.064 568.906 554.189 569.556 553.528C570.207 552.856 571.114 552.52 572.276 552.52C573.439 552.52 574.346 552.856 574.996 553.528C575.647 554.189 575.994 555.064 576.036 556.152C576.047 556.269 576.052 556.499 576.052 556.84C576.052 557.181 576.047 557.411 576.036 557.528C575.994 558.627 575.647 559.507 574.996 560.168C574.356 560.829 573.45 561.16 572.276 561.16ZM572.276 559.928C572.948 559.928 573.476 559.715 573.86 559.288C574.255 558.861 574.468 558.248 574.5 557.448C574.511 557.341 574.516 557.139 574.516 556.84C574.516 556.541 574.511 556.339 574.5 556.232C574.468 555.432 574.255 554.819 573.86 554.392C573.476 553.965 572.948 553.752 572.276 553.752C571.604 553.752 571.071 553.965 570.676 554.392C570.282 554.819 570.074 555.432 570.052 556.232L570.036 556.84L570.052 557.448C570.074 558.248 570.282 558.861 570.676 559.288C571.071 559.715 571.604 559.928 572.276 559.928ZM578.54 561C578.433 561 578.343 560.968 578.268 560.904C578.204 560.829 578.172 560.739 578.172 560.632V550.008C578.172 549.901 578.204 549.816 578.268 549.752C578.343 549.677 578.433 549.64 578.54 549.64H579.292C579.399 549.64 579.484 549.677 579.548 549.752C579.623 549.816 579.66 549.901 579.66 550.008V560.632C579.66 560.739 579.623 560.829 579.548 560.904C579.484 560.968 579.399 561 579.292 561H578.54ZM585.026 561.16C584.28 561.16 583.65 561.043 583.138 560.808C582.637 560.563 582.258 560.285 582.002 559.976C581.757 559.667 581.634 559.411 581.634 559.208C581.634 559.101 581.672 559.021 581.746 558.968C581.832 558.904 581.917 558.872 582.002 558.872H582.722C582.829 558.872 582.925 558.925 583.01 559.032C583.266 559.331 583.544 559.565 583.842 559.736C584.141 559.907 584.541 559.992 585.042 559.992C585.597 559.992 586.045 559.885 586.386 559.672C586.738 559.448 586.914 559.144 586.914 558.76C586.914 558.504 586.84 558.296 586.69 558.136C586.552 557.965 586.306 557.821 585.954 557.704C585.613 557.576 585.101 557.437 584.418 557.288C583.49 557.085 582.829 556.792 582.434 556.408C582.05 556.024 581.858 555.528 581.858 554.92C581.858 554.515 581.976 554.131 582.21 553.768C582.456 553.395 582.808 553.096 583.266 552.872C583.736 552.637 584.296 552.52 584.946 552.52C585.629 552.52 586.21 552.632 586.69 552.856C587.17 553.08 587.528 553.347 587.762 553.656C588.008 553.955 588.13 554.205 588.13 554.408C588.13 554.504 588.093 554.584 588.018 554.648C587.954 554.712 587.874 554.744 587.778 554.744H587.106C586.978 554.744 586.872 554.691 586.786 554.584C586.616 554.381 586.466 554.227 586.338 554.12C586.221 554.003 586.045 553.901 585.81 553.816C585.586 553.731 585.298 553.688 584.946 553.688C584.434 553.688 584.04 553.8 583.762 554.024C583.485 554.237 583.346 554.52 583.346 554.872C583.346 555.096 583.405 555.288 583.522 555.448C583.64 555.597 583.864 555.736 584.194 555.864C584.536 555.992 585.026 556.125 585.666 556.264C586.68 556.477 587.394 556.787 587.81 557.192C588.237 557.587 588.45 558.093 588.45 558.712C588.45 559.171 588.317 559.587 588.05 559.96C587.784 560.333 587.389 560.627 586.866 560.84C586.354 561.053 585.741 561.16 585.026 561.16Z" fill="#8D8D8D"></path>
</svg>
