<?xml version="1.0" encoding="UTF-8"?>
<svg xmlns="http://www.w3.org/2000/svg" width="599" height="276" viewBox="0 0 599 276" fill="none">
  <path d="M475.799 267C475.692 267 475.601 266.968 475.527 266.904C475.463 266.829 475.431 266.739 475.431 266.632V257.224H472.359C472.252 257.224 472.161 257.192 472.087 257.128C472.023 257.053 471.991 256.963 471.991 256.856V256.184C471.991 256.077 472.023 255.987 472.087 255.912C472.161 255.837 472.252 255.8 472.359 255.8H480.071C480.188 255.8 480.279 255.837 480.343 255.912C480.417 255.976 480.455 256.067 480.455 256.184V256.856C480.455 256.963 480.417 257.053 480.343 257.128C480.268 257.192 480.177 257.224 480.071 257.224H477.015V266.632C477.015 266.739 476.977 266.829 476.903 266.904C476.828 266.968 476.737 267 476.631 267H475.799ZM481.211 267C481.105 267 481.014 266.968 480.939 266.904C480.875 266.829 480.843 266.739 480.843 266.632V259.064C480.843 258.957 480.875 258.867 480.939 258.792C481.014 258.717 481.105 258.68 481.211 258.68H481.947C482.054 258.68 482.145 258.717 482.219 258.792C482.294 258.867 482.331 258.957 482.331 259.064V259.768C482.769 259.043 483.515 258.68 484.571 258.68H485.195C485.302 258.68 485.387 258.717 485.451 258.792C485.526 258.856 485.563 258.941 485.563 259.048V259.704C485.563 259.811 485.526 259.896 485.451 259.96C485.387 260.024 485.302 260.056 485.195 260.056H484.235C483.659 260.056 483.206 260.227 482.875 260.568C482.545 260.899 482.379 261.352 482.379 261.928V266.632C482.379 266.739 482.342 266.829 482.267 266.904C482.193 266.968 482.102 267 481.995 267H481.211ZM489.216 267.16C488.694 267.16 488.208 267.053 487.76 266.84C487.312 266.627 486.955 266.339 486.688 265.976C486.432 265.603 486.304 265.192 486.304 264.744C486.304 264.04 486.592 263.464 487.168 263.016C487.755 262.557 488.544 262.259 489.536 262.12L491.92 261.784V261.32C491.92 260.232 491.296 259.688 490.048 259.688C489.579 259.688 489.195 259.789 488.896 259.992C488.598 260.184 488.374 260.413 488.224 260.68C488.192 260.776 488.15 260.845 488.096 260.888C488.054 260.931 487.99 260.952 487.904 260.952H487.216C487.12 260.952 487.035 260.92 486.96 260.856C486.896 260.781 486.864 260.696 486.864 260.6C486.875 260.344 486.992 260.056 487.216 259.736C487.451 259.405 487.808 259.123 488.288 258.888C488.768 258.643 489.36 258.52 490.064 258.52C491.259 258.52 492.118 258.803 492.64 259.368C493.163 259.923 493.424 260.616 493.424 261.448V266.632C493.424 266.739 493.387 266.829 493.312 266.904C493.248 266.968 493.163 267 493.056 267H492.32C492.214 267 492.123 266.968 492.048 266.904C491.984 266.829 491.952 266.739 491.952 266.632V265.944C491.718 266.285 491.376 266.573 490.928 266.808C490.48 267.043 489.91 267.16 489.216 267.16ZM489.552 265.96C490.246 265.96 490.811 265.736 491.248 265.288C491.696 264.829 491.92 264.173 491.92 263.32V262.872L490.064 263.144C489.307 263.251 488.736 263.432 488.352 263.688C487.968 263.933 487.776 264.248 487.776 264.632C487.776 265.059 487.952 265.389 488.304 265.624C488.656 265.848 489.072 265.96 489.552 265.96ZM496.065 257.128C495.958 257.128 495.867 257.096 495.793 257.032C495.729 256.957 495.697 256.867 495.697 256.76V255.896C495.697 255.789 495.729 255.699 495.793 255.624C495.867 255.549 495.958 255.512 496.065 255.512H497.073C497.179 255.512 497.27 255.549 497.345 255.624C497.419 255.699 497.457 255.789 497.457 255.896V256.76C497.457 256.867 497.419 256.957 497.345 257.032C497.27 257.096 497.179 257.128 497.073 257.128H496.065ZM496.193 267C496.086 267 495.995 266.968 495.921 266.904C495.857 266.829 495.825 266.739 495.825 266.632V259.048C495.825 258.941 495.857 258.856 495.921 258.792C495.995 258.717 496.086 258.68 496.193 258.68H496.961C497.067 258.68 497.153 258.717 497.217 258.792C497.291 258.856 497.329 258.941 497.329 259.048V266.632C497.329 266.739 497.291 266.829 497.217 266.904C497.153 266.968 497.067 267 496.961 267H496.193ZM500.168 267C500.061 267 499.97 266.968 499.896 266.904C499.832 266.829 499.8 266.739 499.8 266.632V259.048C499.8 258.941 499.832 258.856 499.896 258.792C499.97 258.717 500.061 258.68 500.168 258.68H500.92C501.026 258.68 501.112 258.717 501.176 258.792C501.25 258.856 501.288 258.941 501.288 259.048V259.752C501.597 259.357 501.96 259.053 502.376 258.84C502.802 258.627 503.33 258.52 503.96 258.52C504.984 258.52 505.778 258.851 506.344 259.512C506.92 260.163 507.208 261.032 507.208 262.12V266.632C507.208 266.739 507.17 266.829 507.096 266.904C507.032 266.968 506.946 267 506.84 267H506.04C505.933 267 505.842 266.968 505.768 266.904C505.704 266.829 505.672 266.739 505.672 266.632V262.2C505.672 261.443 505.485 260.856 505.112 260.44C504.749 260.024 504.221 259.816 503.528 259.816C502.856 259.816 502.322 260.029 501.928 260.456C501.533 260.872 501.336 261.453 501.336 262.2V266.632C501.336 266.739 501.298 266.829 501.224 266.904C501.16 266.968 501.074 267 500.968 267H500.168ZM509.843 257.128C509.736 257.128 509.645 257.096 509.571 257.032C509.507 256.957 509.475 256.867 509.475 256.76V255.896C509.475 255.789 509.507 255.699 509.571 255.624C509.645 255.549 509.736 255.512 509.843 255.512H510.851C510.957 255.512 511.048 255.549 511.123 255.624C511.197 255.699 511.235 255.789 511.235 255.896V256.76C511.235 256.867 511.197 256.957 511.123 257.032C511.048 257.096 510.957 257.128 510.851 257.128H509.843ZM509.971 267C509.864 267 509.773 266.968 509.699 266.904C509.635 266.829 509.603 266.739 509.603 266.632V259.048C509.603 258.941 509.635 258.856 509.699 258.792C509.773 258.717 509.864 258.68 509.971 258.68H510.739C510.845 258.68 510.931 258.717 510.995 258.792C511.069 258.856 511.107 258.941 511.107 259.048V266.632C511.107 266.739 511.069 266.829 510.995 266.904C510.931 266.968 510.845 267 510.739 267H509.971ZM513.946 267C513.839 267 513.748 266.968 513.674 266.904C513.61 266.829 513.578 266.739 513.578 266.632V259.048C513.578 258.941 513.61 258.856 513.674 258.792C513.748 258.717 513.839 258.68 513.946 258.68H514.698C514.804 258.68 514.89 258.717 514.954 258.792C515.028 258.856 515.066 258.941 515.066 259.048V259.752C515.375 259.357 515.738 259.053 516.154 258.84C516.58 258.627 517.108 258.52 517.738 258.52C518.762 258.52 519.556 258.851 520.122 259.512C520.698 260.163 520.986 261.032 520.986 262.12V266.632C520.986 266.739 520.948 266.829 520.874 266.904C520.81 266.968 520.724 267 520.618 267H519.818C519.711 267 519.62 266.968 519.546 266.904C519.482 266.829 519.45 266.739 519.45 266.632V262.2C519.45 261.443 519.263 260.856 518.89 260.44C518.527 260.024 517.999 259.816 517.306 259.816C516.634 259.816 516.1 260.029 515.706 260.456C515.311 260.872 515.114 261.453 515.114 262.2V266.632C515.114 266.739 515.076 266.829 515.002 266.904C514.938 266.968 514.852 267 514.746 267H513.946ZM526.789 270.52C525.914 270.52 525.21 270.371 524.677 270.072C524.144 269.784 523.765 269.453 523.541 269.08C523.317 268.707 523.194 268.371 523.173 268.072C523.162 267.965 523.194 267.875 523.269 267.8C523.354 267.725 523.445 267.688 523.541 267.688H524.309C524.405 267.688 524.485 267.709 524.549 267.752C524.613 267.805 524.666 267.896 524.709 268.024C524.837 268.365 525.045 268.659 525.333 268.904C525.632 269.16 526.09 269.288 526.709 269.288C527.498 269.288 528.08 269.117 528.453 268.776C528.826 268.445 529.013 267.853 529.013 267V265.912C528.736 266.264 528.384 266.547 527.957 266.76C527.53 266.963 527.024 267.064 526.437 267.064C525.306 267.064 524.458 266.707 523.893 265.992C523.338 265.267 523.045 264.349 523.013 263.24L522.997 262.792L523.013 262.36C523.045 261.261 523.344 260.349 523.909 259.624C524.474 258.888 525.317 258.52 526.437 258.52C527.557 258.52 528.432 258.931 529.061 259.752V259.064C529.061 258.957 529.093 258.867 529.157 258.792C529.232 258.717 529.322 258.68 529.429 258.68H530.165C530.272 258.68 530.362 258.717 530.437 258.792C530.512 258.867 530.549 258.957 530.549 259.064V266.824C530.549 269.288 529.296 270.52 526.789 270.52ZM526.757 265.784C527.482 265.784 528.032 265.544 528.405 265.064C528.778 264.584 528.981 264.013 529.013 263.352C529.024 263.256 529.029 263.069 529.029 262.792C529.029 262.525 529.024 262.344 529.013 262.248C528.981 261.587 528.778 261.016 528.405 260.536C528.042 260.056 527.493 259.816 526.757 259.816C526 259.816 525.45 260.051 525.109 260.52C524.768 260.989 524.581 261.608 524.549 262.376L524.533 262.792L524.549 263.224C524.581 263.981 524.768 264.6 525.109 265.08C525.45 265.549 526 265.784 526.757 265.784ZM535.908 267.16C535.161 267.16 534.532 267.043 534.02 266.808C533.518 266.563 533.14 266.285 532.884 265.976C532.638 265.667 532.516 265.411 532.516 265.208C532.516 265.101 532.553 265.021 532.628 264.968C532.713 264.904 532.798 264.872 532.884 264.872H533.604C533.71 264.872 533.806 264.925 533.892 265.032C534.148 265.331 534.425 265.565 534.724 265.736C535.022 265.907 535.422 265.992 535.924 265.992C536.478 265.992 536.926 265.885 537.268 265.672C537.62 265.448 537.796 265.144 537.796 264.76C537.796 264.504 537.721 264.296 537.572 264.136C537.433 263.965 537.188 263.821 536.836 263.704C536.494 263.576 535.982 263.437 535.3 263.288C534.372 263.085 533.71 262.792 533.316 262.408C532.932 262.024 532.74 261.528 532.74 260.92C532.74 260.515 532.857 260.131 533.092 259.768C533.337 259.395 533.689 259.096 534.148 258.872C534.617 258.637 535.177 258.52 535.828 258.52C536.51 258.52 537.092 258.632 537.572 258.856C538.052 259.08 538.409 259.347 538.644 259.656C538.889 259.955 539.012 260.205 539.012 260.408C539.012 260.504 538.974 260.584 538.9 260.648C538.836 260.712 538.756 260.744 538.66 260.744H537.988C537.86 260.744 537.753 260.691 537.668 260.584C537.497 260.381 537.348 260.227 537.22 260.12C537.102 260.003 536.926 259.901 536.692 259.816C536.468 259.731 536.18 259.688 535.828 259.688C535.316 259.688 534.921 259.8 534.644 260.024C534.366 260.237 534.228 260.52 534.228 260.872C534.228 261.096 534.286 261.288 534.404 261.448C534.521 261.597 534.745 261.736 535.076 261.864C535.417 261.992 535.908 262.125 536.548 262.264C537.561 262.477 538.276 262.787 538.692 263.192C539.118 263.587 539.332 264.093 539.332 264.712C539.332 265.171 539.198 265.587 538.932 265.96C538.665 266.333 538.27 266.627 537.748 266.84C537.236 267.053 536.622 267.16 535.908 267.16Z" fill="#272521"></path>
  <g clip-path="url(#clip0)">
    <path d="M393.44 234.632C445.679 234.632 488.027 192.426 488.027 140.362C488.027 88.2987 445.679 46.0928 393.44 46.0928C341.2 46.0928 298.852 88.2987 298.852 140.362C298.852 192.426 341.2 234.632 393.44 234.632Z" fill="#C2DDDD"></path>
    <path d="M373.534 69.1932C386.526 75.9172 398.753 83.0219 409.896 90.5335C427.937 102.407 442.954 114.37 454.606 126.132C454.958 120.699 454.993 115.291 454.539 109.764C449.396 48.9831 396.094 3.91492 335.095 8.917C311.329 10.8659 290.073 20.0804 273.218 34.3389C300.962 38.1047 336.719 50.1155 373.534 69.1932Z" fill="#1C8E8D"></path>
    <path d="M441.475 170.774C437.64 219.257 398.966 259.155 348.9 263.266C347.632 263.37 346.523 263.461 345.414 263.552C356.961 248.773 368.743 227.14 378.603 201.531C402.736 192.396 424.191 181.732 441.475 170.774C441.462 170.616 441.462 170.616 441.475 170.774Z" fill="#D78E30"></path>
    <path d="M333.725 197.322C329.651 199.175 325.555 200.871 321.459 202.568C282.416 218.303 245.212 226.579 217.807 226.916C238.833 250.837 270.744 264.265 304.586 260.622C315.101 245.222 325.319 223.144 333.725 197.322Z" fill="#1C8E8D"></path>
    <path d="M433.181 153.829C418.397 161.751 400.274 168.88 379.926 174.743C383.105 168.088 386.126 161.117 388.987 153.829C393.438 142.738 396.936 131.806 399.797 121.35C413.787 132.282 425.233 143.531 433.181 153.829Z" fill="#C9465C"></path>
    <path d="M239.298 46.0928C238.821 46.4096 238.185 46.885 237.708 47.2018C210.683 68.5907 193.832 101.387 194.945 137.669C195.262 149.076 197.488 160.167 200.985 170.465C203.529 176.644 206.708 182.506 210.365 187.893C239.298 191.537 279.994 188.527 323.552 177.912C328.163 176.803 332.773 175.535 337.224 174.426C341.357 166.029 345.331 157.315 348.988 148.126C354.711 134.025 359.321 120.399 362.977 107.249C353.121 99.8027 342.311 92.3561 330.865 85.3849C297.799 65.1051 265.051 51.4796 239.298 46.0928Z" fill="#024858"></path>
  </g>
  <path d="M468.782 25.916C468.676 25.916 468.585 25.884 468.51 25.82C468.446 25.7453 468.414 25.6547 468.414 25.548V15.1C468.414 14.9827 468.446 14.892 468.51 14.828C468.585 14.7533 468.676 14.716 468.782 14.716H472.414C474.025 14.716 475.188 15.0787 475.902 15.804C476.617 16.5187 476.99 17.6013 477.022 19.052C477.033 19.3613 477.038 19.7773 477.038 20.3C477.038 20.8227 477.033 21.244 477.022 21.564C476.99 22.5773 476.82 23.404 476.51 24.044C476.212 24.6733 475.737 25.1427 475.086 25.452C474.436 25.7613 473.572 25.916 472.494 25.916H468.782ZM472.414 24.556C473.15 24.556 473.732 24.4547 474.158 24.252C474.596 24.0493 474.91 23.7293 475.102 23.292C475.305 22.844 475.417 22.2467 475.438 21.5C475.46 20.86 475.47 20.46 475.47 20.3C475.47 20.1293 475.46 19.7347 475.438 19.116C475.417 18.06 475.166 17.292 474.686 16.812C474.206 16.3213 473.422 16.076 472.334 16.076H469.982V24.556H472.414ZM481.658 26.076C481.135 26.076 480.65 25.9693 480.202 25.756C479.754 25.5427 479.396 25.2547 479.13 24.892C478.874 24.5187 478.746 24.108 478.746 23.66C478.746 22.956 479.034 22.38 479.61 21.932C480.196 21.4733 480.986 21.1747 481.978 21.036L484.362 20.7V20.236C484.362 19.148 483.738 18.604 482.49 18.604C482.02 18.604 481.636 18.7053 481.338 18.908C481.039 19.1 480.815 19.3293 480.666 19.596C480.634 19.692 480.591 19.7613 480.538 19.804C480.495 19.8467 480.431 19.868 480.346 19.868H479.658C479.562 19.868 479.476 19.836 479.402 19.772C479.338 19.6973 479.306 19.612 479.306 19.516C479.316 19.26 479.434 18.972 479.658 18.652C479.892 18.3213 480.25 18.0387 480.73 17.804C481.21 17.5587 481.802 17.436 482.506 17.436C483.7 17.436 484.559 17.7187 485.082 18.284C485.604 18.8387 485.866 19.532 485.866 20.364V25.548C485.866 25.6547 485.828 25.7453 485.754 25.82C485.69 25.884 485.604 25.916 485.498 25.916H484.762C484.655 25.916 484.564 25.884 484.49 25.82C484.426 25.7453 484.394 25.6547 484.394 25.548V24.86C484.159 25.2013 483.818 25.4893 483.37 25.724C482.922 25.9587 482.351 26.076 481.658 26.076ZM481.994 24.876C482.687 24.876 483.252 24.652 483.69 24.204C484.138 23.7453 484.362 23.0893 484.362 22.236V21.788L482.506 22.06C481.748 22.1667 481.178 22.348 480.794 22.604C480.41 22.8493 480.218 23.164 480.218 23.548C480.218 23.9747 480.394 24.3053 480.746 24.54C481.098 24.764 481.514 24.876 481.994 24.876ZM491.436 25.916C489.75 25.916 488.908 24.9773 488.908 23.1V18.876H487.66C487.553 18.876 487.462 18.844 487.388 18.78C487.324 18.7053 487.292 18.6147 487.292 18.508V17.964C487.292 17.8573 487.324 17.772 487.388 17.708C487.462 17.6333 487.553 17.596 487.66 17.596H488.908V14.924C488.908 14.8173 488.94 14.732 489.004 14.668C489.078 14.5933 489.169 14.556 489.276 14.556H490.028C490.134 14.556 490.22 14.5933 490.284 14.668C490.358 14.732 490.396 14.8173 490.396 14.924V17.596H492.38C492.486 17.596 492.572 17.6333 492.636 17.708C492.71 17.772 492.748 17.8573 492.748 17.964V18.508C492.748 18.6147 492.71 18.7053 492.636 18.78C492.572 18.844 492.486 18.876 492.38 18.876H490.396V22.988C490.396 23.5213 490.486 23.9267 490.668 24.204C490.849 24.4707 491.148 24.604 491.564 24.604H492.54C492.646 24.604 492.732 24.6413 492.796 24.716C492.87 24.78 492.908 24.8653 492.908 24.972V25.548C492.908 25.6547 492.87 25.7453 492.796 25.82C492.732 25.884 492.646 25.916 492.54 25.916H491.436ZM496.858 26.076C496.335 26.076 495.85 25.9693 495.402 25.756C494.954 25.5427 494.596 25.2547 494.33 24.892C494.074 24.5187 493.946 24.108 493.946 23.66C493.946 22.956 494.234 22.38 494.81 21.932C495.396 21.4733 496.186 21.1747 497.178 21.036L499.562 20.7V20.236C499.562 19.148 498.938 18.604 497.69 18.604C497.22 18.604 496.836 18.7053 496.538 18.908C496.239 19.1 496.015 19.3293 495.866 19.596C495.834 19.692 495.791 19.7613 495.738 19.804C495.695 19.8467 495.631 19.868 495.546 19.868H494.858C494.762 19.868 494.676 19.836 494.602 19.772C494.538 19.6973 494.506 19.612 494.506 19.516C494.516 19.26 494.634 18.972 494.858 18.652C495.092 18.3213 495.45 18.0387 495.93 17.804C496.41 17.5587 497.002 17.436 497.706 17.436C498.9 17.436 499.759 17.7187 500.282 18.284C500.804 18.8387 501.066 19.532 501.066 20.364V25.548C501.066 25.6547 501.028 25.7453 500.954 25.82C500.89 25.884 500.804 25.916 500.698 25.916H499.962C499.855 25.916 499.764 25.884 499.69 25.82C499.626 25.7453 499.594 25.6547 499.594 25.548V24.86C499.359 25.2013 499.018 25.4893 498.57 25.724C498.122 25.9587 497.551 26.076 496.858 26.076ZM497.194 24.876C497.887 24.876 498.452 24.652 498.89 24.204C499.338 23.7453 499.562 23.0893 499.562 22.236V21.788L497.706 22.06C496.948 22.1667 496.378 22.348 495.994 22.604C495.61 22.8493 495.418 23.164 495.418 23.548C495.418 23.9747 495.594 24.3053 495.946 24.54C496.298 24.764 496.714 24.876 497.194 24.876Z" fill="#272521"></path>
  <path d="M60.6846 264.468C60.5779 264.468 60.4872 264.436 60.4126 264.372C60.3486 264.297 60.3166 264.206 60.3166 264.1V254.692H57.2446C57.1379 254.692 57.0472 254.66 56.9726 254.596C56.9086 254.521 56.8766 254.43 56.8766 254.324V253.652C56.8766 253.545 56.9086 253.454 56.9726 253.38C57.0472 253.305 57.1379 253.268 57.2446 253.268H64.9566C65.0739 253.268 65.1646 253.305 65.2286 253.38C65.3032 253.444 65.3406 253.534 65.3406 253.652V254.324C65.3406 254.43 65.3032 254.521 65.2286 254.596C65.1539 254.66 65.0632 254.692 64.9566 254.692H61.9006V264.1C61.9006 264.206 61.8632 264.297 61.7886 264.372C61.7139 264.436 61.6232 264.468 61.5166 264.468H60.6846ZM68.8229 264.628C67.7243 264.628 66.8443 264.292 66.1829 263.62C65.5323 262.937 65.1749 262.009 65.1109 260.836L65.0949 260.292L65.1109 259.764C65.1856 258.612 65.5483 257.694 66.1989 257.012C66.8603 256.329 67.7296 255.988 68.8069 255.988C69.9909 255.988 70.9083 256.366 71.5589 257.124C72.2096 257.87 72.5349 258.884 72.5349 260.164V260.436C72.5349 260.542 72.4976 260.633 72.4229 260.708C72.3589 260.772 72.2736 260.804 72.1669 260.804H66.6309V260.948C66.6629 261.641 66.8709 262.233 67.2549 262.724C67.6496 263.204 68.1669 263.444 68.8069 263.444C69.2976 263.444 69.6976 263.348 70.0069 263.156C70.3269 262.953 70.5616 262.745 70.7109 262.532C70.8069 262.404 70.8763 262.329 70.9189 262.308C70.9723 262.276 71.0629 262.26 71.1909 262.26H71.9749C72.0709 262.26 72.1509 262.286 72.2149 262.34C72.2789 262.393 72.3109 262.468 72.3109 262.564C72.3109 262.798 72.1616 263.081 71.8629 263.412C71.5749 263.742 71.1643 264.03 70.6309 264.276C70.1083 264.51 69.5056 264.628 68.8229 264.628ZM71.0149 259.7V259.652C71.0149 258.916 70.8123 258.318 70.4069 257.86C70.0123 257.39 69.4789 257.156 68.8069 257.156C68.1349 257.156 67.6016 257.39 67.2069 257.86C66.8229 258.318 66.6309 258.916 66.6309 259.652V259.7H71.0149ZM74.9161 264.468C74.8094 264.468 74.7187 264.436 74.6441 264.372C74.5801 264.297 74.5481 264.206 74.5481 264.1V256.532C74.5481 256.425 74.5801 256.334 74.6441 256.26C74.7187 256.185 74.8094 256.148 74.9161 256.148H75.6521C75.7587 256.148 75.8494 256.185 75.9241 256.26C75.9987 256.334 76.0361 256.425 76.0361 256.532V257.236C76.4734 256.51 77.2201 256.148 78.2761 256.148H78.9001C79.0067 256.148 79.0921 256.185 79.1561 256.26C79.2307 256.324 79.2681 256.409 79.2681 256.516V257.172C79.2681 257.278 79.2307 257.364 79.1561 257.428C79.0921 257.492 79.0067 257.524 78.9001 257.524H77.9401C77.3641 257.524 76.9107 257.694 76.5801 258.036C76.2494 258.366 76.0841 258.82 76.0841 259.396V264.1C76.0841 264.206 76.0467 264.297 75.9721 264.372C75.8974 264.436 75.8067 264.468 75.7001 264.468H74.9161ZM81.0942 264.468C80.9875 264.468 80.8969 264.436 80.8222 264.372C80.7582 264.297 80.7262 264.206 80.7262 264.1V256.516C80.7262 256.409 80.7582 256.324 80.8222 256.26C80.8969 256.185 80.9875 256.148 81.0942 256.148H81.8142C81.9209 256.148 82.0062 256.185 82.0702 256.26C82.1449 256.324 82.1822 256.409 82.1822 256.516V257.076C82.7369 256.35 83.5102 255.988 84.5022 255.988C85.6862 255.988 86.5235 256.478 87.0142 257.46C87.2702 257.012 87.6329 256.654 88.1022 256.388C88.5715 256.121 89.0995 255.988 89.6862 255.988C90.5609 255.988 91.2755 256.286 91.8302 256.884C92.3849 257.481 92.6622 258.345 92.6622 259.476V264.1C92.6622 264.206 92.6249 264.297 92.5502 264.372C92.4862 264.436 92.4009 264.468 92.2942 264.468H91.5422C91.4355 264.468 91.3449 264.436 91.2702 264.372C91.2062 264.297 91.1742 264.206 91.1742 264.1V259.62C91.1742 258.788 90.9982 258.19 90.6462 257.828C90.3049 257.465 89.8515 257.284 89.2862 257.284C88.7849 257.284 88.3529 257.47 87.9902 257.844C87.6275 258.206 87.4462 258.798 87.4462 259.62V264.1C87.4462 264.206 87.4089 264.297 87.3342 264.372C87.2702 264.436 87.1849 264.468 87.0782 264.468H86.3262C86.2195 264.468 86.1289 264.436 86.0542 264.372C85.9902 264.297 85.9582 264.206 85.9582 264.1V259.62C85.9582 258.788 85.7769 258.19 85.4142 257.828C85.0622 257.465 84.6142 257.284 84.0702 257.284C83.5689 257.284 83.1369 257.47 82.7742 257.844C82.4115 258.206 82.2302 258.793 82.2302 259.604V264.1C82.2302 264.206 82.1929 264.297 82.1182 264.372C82.0542 264.436 81.9689 264.468 81.8622 264.468H81.0942ZM97.9249 264.628C97.1783 264.628 96.5489 264.51 96.0369 264.276C95.5356 264.03 95.1569 263.753 94.9009 263.444C94.6556 263.134 94.5329 262.878 94.5329 262.676C94.5329 262.569 94.5703 262.489 94.6449 262.436C94.7303 262.372 94.8156 262.34 94.9009 262.34H95.6209C95.7276 262.34 95.8236 262.393 95.9089 262.5C96.1649 262.798 96.4423 263.033 96.7409 263.204C97.0396 263.374 97.4396 263.46 97.9409 263.46C98.4956 263.46 98.9436 263.353 99.2849 263.14C99.6369 262.916 99.8129 262.612 99.8129 262.228C99.8129 261.972 99.7383 261.764 99.5889 261.604C99.4503 261.433 99.2049 261.289 98.8529 261.172C98.5116 261.044 97.9996 260.905 97.3169 260.756C96.3889 260.553 95.7276 260.26 95.3329 259.876C94.9489 259.492 94.7569 258.996 94.7569 258.388C94.7569 257.982 94.8743 257.598 95.1089 257.236C95.3543 256.862 95.7063 256.564 96.1649 256.34C96.6343 256.105 97.1943 255.988 97.8449 255.988C98.5276 255.988 99.1089 256.1 99.5889 256.324C100.069 256.548 100.426 256.814 100.661 257.124C100.906 257.422 101.029 257.673 101.029 257.876C101.029 257.972 100.992 258.052 100.917 258.116C100.853 258.18 100.773 258.212 100.677 258.212H100.005C99.8769 258.212 99.7703 258.158 99.6849 258.052C99.5143 257.849 99.3649 257.694 99.2369 257.588C99.1196 257.47 98.9436 257.369 98.7089 257.284C98.4849 257.198 98.1969 257.156 97.8449 257.156C97.3329 257.156 96.9383 257.268 96.6609 257.492C96.3836 257.705 96.2449 257.988 96.2449 258.34C96.2449 258.564 96.3036 258.756 96.4209 258.916C96.5383 259.065 96.7623 259.204 97.0929 259.332C97.4343 259.46 97.9249 259.593 98.5649 259.732C99.5783 259.945 100.293 260.254 100.709 260.66C101.136 261.054 101.349 261.561 101.349 262.18C101.349 262.638 101.216 263.054 100.949 263.428C100.682 263.801 100.288 264.094 99.7649 264.308C99.2529 264.521 98.6396 264.628 97.9249 264.628ZM110.731 264.628C109.558 264.628 108.646 264.297 107.995 263.636C107.355 262.974 107.014 262.094 106.971 260.996L106.955 260.308L106.971 259.62C107.014 258.532 107.36 257.657 108.011 256.996C108.662 256.324 109.568 255.988 110.731 255.988C111.894 255.988 112.8 256.324 113.451 256.996C114.102 257.657 114.448 258.532 114.491 259.62C114.502 259.737 114.507 259.966 114.507 260.308C114.507 260.649 114.502 260.878 114.491 260.996C114.448 262.094 114.102 262.974 113.451 263.636C112.811 264.297 111.904 264.628 110.731 264.628ZM110.731 263.396C111.403 263.396 111.931 263.182 112.315 262.756C112.71 262.329 112.923 261.716 112.955 260.916C112.966 260.809 112.971 260.606 112.971 260.308C112.971 260.009 112.966 259.806 112.955 259.7C112.923 258.9 112.71 258.286 112.315 257.86C111.931 257.433 111.403 257.22 110.731 257.22C110.059 257.22 109.526 257.433 109.131 257.86C108.736 258.286 108.528 258.9 108.507 259.7L108.491 260.308L108.507 260.916C108.528 261.716 108.736 262.329 109.131 262.756C109.526 263.182 110.059 263.396 110.731 263.396ZM117.717 264.468C117.61 264.468 117.519 264.436 117.445 264.372C117.381 264.297 117.349 264.206 117.349 264.1V257.428H115.989C115.882 257.428 115.791 257.396 115.717 257.332C115.653 257.257 115.621 257.166 115.621 257.06V256.516C115.621 256.409 115.653 256.324 115.717 256.26C115.791 256.185 115.882 256.148 115.989 256.148H117.349V255.348C117.349 253.534 118.266 252.628 120.101 252.628H121.061C121.167 252.628 121.253 252.665 121.317 252.74C121.391 252.804 121.429 252.889 121.429 252.996V253.54C121.429 253.646 121.391 253.737 121.317 253.812C121.253 253.876 121.167 253.908 121.061 253.908H120.133C119.653 253.908 119.317 254.036 119.125 254.292C118.933 254.537 118.837 254.916 118.837 255.428V256.148H120.901C121.007 256.148 121.093 256.185 121.157 256.26C121.231 256.324 121.269 256.409 121.269 256.516V257.06C121.269 257.166 121.231 257.257 121.157 257.332C121.093 257.396 121.007 257.428 120.901 257.428H118.837V264.1C118.837 264.206 118.799 264.297 118.725 264.372C118.661 264.436 118.575 264.468 118.469 264.468H117.717ZM127.012 264.468C126.905 264.468 126.814 264.436 126.74 264.372C126.676 264.297 126.644 264.206 126.644 264.1V253.652C126.644 253.534 126.676 253.444 126.74 253.38C126.814 253.305 126.905 253.268 127.012 253.268H130.916C132.142 253.268 133.102 253.556 133.796 254.132C134.489 254.708 134.836 255.54 134.836 256.628C134.836 257.438 134.633 258.105 134.228 258.628C133.833 259.15 133.273 259.513 132.548 259.716L135.012 263.972C135.044 264.036 135.06 264.094 135.06 264.148C135.06 264.233 135.022 264.308 134.948 264.372C134.884 264.436 134.809 264.468 134.724 264.468H133.956C133.796 264.468 133.668 264.43 133.572 264.356C133.486 264.281 133.406 264.174 133.332 264.036L131.012 259.972H128.212V264.1C128.212 264.206 128.174 264.297 128.1 264.372C128.025 264.436 127.934 264.468 127.828 264.468H127.012ZM130.852 258.612C132.441 258.612 133.236 257.945 133.236 256.612C133.236 255.278 132.441 254.612 130.852 254.612H128.212V258.612H130.852ZM140.254 264.628C139.156 264.628 138.276 264.292 137.614 263.62C136.964 262.937 136.606 262.009 136.542 260.836L136.526 260.292L136.542 259.764C136.617 258.612 136.98 257.694 137.63 257.012C138.292 256.329 139.161 255.988 140.238 255.988C141.422 255.988 142.34 256.366 142.99 257.124C143.641 257.87 143.966 258.884 143.966 260.164V260.436C143.966 260.542 143.929 260.633 143.854 260.708C143.79 260.772 143.705 260.804 143.598 260.804H138.062V260.948C138.094 261.641 138.302 262.233 138.686 262.724C139.081 263.204 139.598 263.444 140.238 263.444C140.729 263.444 141.129 263.348 141.438 263.156C141.758 262.953 141.993 262.745 142.142 262.532C142.238 262.404 142.308 262.329 142.35 262.308C142.404 262.276 142.494 262.26 142.622 262.26H143.406C143.502 262.26 143.582 262.286 143.646 262.34C143.71 262.393 143.742 262.468 143.742 262.564C143.742 262.798 143.593 263.081 143.294 263.412C143.006 263.742 142.596 264.03 142.062 264.276C141.54 264.51 140.937 264.628 140.254 264.628ZM142.446 259.7V259.652C142.446 258.916 142.244 258.318 141.838 257.86C141.444 257.39 140.91 257.156 140.238 257.156C139.566 257.156 139.033 257.39 138.638 257.86C138.254 258.318 138.062 258.916 138.062 259.652V259.7H142.446ZM147.101 264.468C146.995 264.468 146.904 264.436 146.829 264.372C146.765 264.297 146.733 264.206 146.733 264.1V257.428H145.373C145.267 257.428 145.176 257.396 145.101 257.332C145.037 257.257 145.005 257.166 145.005 257.06V256.516C145.005 256.409 145.037 256.324 145.101 256.26C145.176 256.185 145.267 256.148 145.373 256.148H146.733V255.348C146.733 253.534 147.651 252.628 149.485 252.628H150.445C150.552 252.628 150.637 252.665 150.701 252.74C150.776 252.804 150.813 252.889 150.813 252.996V253.54C150.813 253.646 150.776 253.737 150.701 253.812C150.637 253.876 150.552 253.908 150.445 253.908H149.517C149.037 253.908 148.701 254.036 148.509 254.292C148.317 254.537 148.221 254.916 148.221 255.428V256.148H150.285C150.392 256.148 150.477 256.185 150.541 256.26C150.616 256.324 150.653 256.409 150.653 256.516V257.06C150.653 257.166 150.616 257.257 150.541 257.332C150.477 257.396 150.392 257.428 150.285 257.428H148.221V264.1C148.221 264.206 148.184 264.297 148.109 264.372C148.045 264.436 147.96 264.468 147.853 264.468H147.101ZM155.329 264.628C154.231 264.628 153.351 264.292 152.689 263.62C152.039 262.937 151.681 262.009 151.617 260.836L151.601 260.292L151.617 259.764C151.692 258.612 152.055 257.694 152.705 257.012C153.367 256.329 154.236 255.988 155.313 255.988C156.497 255.988 157.415 256.366 158.065 257.124C158.716 257.87 159.041 258.884 159.041 260.164V260.436C159.041 260.542 159.004 260.633 158.929 260.708C158.865 260.772 158.78 260.804 158.673 260.804H153.137V260.948C153.169 261.641 153.377 262.233 153.761 262.724C154.156 263.204 154.673 263.444 155.313 263.444C155.804 263.444 156.204 263.348 156.513 263.156C156.833 262.953 157.068 262.745 157.217 262.532C157.313 262.404 157.383 262.329 157.425 262.308C157.479 262.276 157.569 262.26 157.697 262.26H158.481C158.577 262.26 158.657 262.286 158.721 262.34C158.785 262.393 158.817 262.468 158.817 262.564C158.817 262.798 158.668 263.081 158.369 263.412C158.081 263.742 157.671 264.03 157.137 264.276C156.615 264.51 156.012 264.628 155.329 264.628ZM157.521 259.7V259.652C157.521 258.916 157.319 258.318 156.913 257.86C156.519 257.39 155.985 257.156 155.313 257.156C154.641 257.156 154.108 257.39 153.713 257.86C153.329 258.318 153.137 258.916 153.137 259.652V259.7H157.521ZM161.422 264.468C161.316 264.468 161.225 264.436 161.15 264.372C161.086 264.297 161.054 264.206 161.054 264.1V256.532C161.054 256.425 161.086 256.334 161.15 256.26C161.225 256.185 161.316 256.148 161.422 256.148H162.158C162.265 256.148 162.356 256.185 162.43 256.26C162.505 256.334 162.542 256.425 162.542 256.532V257.236C162.98 256.51 163.726 256.148 164.782 256.148H165.406C165.513 256.148 165.598 256.185 165.662 256.26C165.737 256.324 165.774 256.409 165.774 256.516V257.172C165.774 257.278 165.737 257.364 165.662 257.428C165.598 257.492 165.513 257.524 165.406 257.524H164.446C163.87 257.524 163.417 257.694 163.086 258.036C162.756 258.366 162.59 258.82 162.59 259.396V264.1C162.59 264.206 162.553 264.297 162.478 264.372C162.404 264.436 162.313 264.468 162.206 264.468H161.422ZM170.404 264.628C169.306 264.628 168.426 264.292 167.764 263.62C167.114 262.937 166.756 262.009 166.692 260.836L166.676 260.292L166.692 259.764C166.767 258.612 167.13 257.694 167.78 257.012C168.442 256.329 169.311 255.988 170.388 255.988C171.572 255.988 172.49 256.366 173.14 257.124C173.791 257.87 174.116 258.884 174.116 260.164V260.436C174.116 260.542 174.079 260.633 174.004 260.708C173.94 260.772 173.855 260.804 173.748 260.804H168.212V260.948C168.244 261.641 168.452 262.233 168.836 262.724C169.231 263.204 169.748 263.444 170.388 263.444C170.879 263.444 171.279 263.348 171.588 263.156C171.908 262.953 172.143 262.745 172.292 262.532C172.388 262.404 172.458 262.329 172.5 262.308C172.554 262.276 172.644 262.26 172.772 262.26H173.556C173.652 262.26 173.732 262.286 173.796 262.34C173.86 262.393 173.892 262.468 173.892 262.564C173.892 262.798 173.743 263.081 173.444 263.412C173.156 263.742 172.746 264.03 172.212 264.276C171.69 264.51 171.087 264.628 170.404 264.628ZM172.596 259.7V259.652C172.596 258.916 172.394 258.318 171.988 257.86C171.594 257.39 171.06 257.156 170.388 257.156C169.716 257.156 169.183 257.39 168.788 257.86C168.404 258.318 168.212 258.916 168.212 259.652V259.7H172.596ZM176.497 264.468C176.391 264.468 176.3 264.436 176.225 264.372C176.161 264.297 176.129 264.206 176.129 264.1V256.516C176.129 256.409 176.161 256.324 176.225 256.26C176.3 256.185 176.391 256.148 176.497 256.148H177.249C177.356 256.148 177.441 256.185 177.505 256.26C177.58 256.324 177.617 256.409 177.617 256.516V257.22C177.927 256.825 178.289 256.521 178.705 256.308C179.132 256.094 179.66 255.988 180.289 255.988C181.313 255.988 182.108 256.318 182.673 256.98C183.249 257.63 183.537 258.5 183.537 259.588V264.1C183.537 264.206 183.5 264.297 183.425 264.372C183.361 264.436 183.276 264.468 183.169 264.468H182.369C182.263 264.468 182.172 264.436 182.097 264.372C182.033 264.297 182.001 264.206 182.001 264.1V259.668C182.001 258.91 181.815 258.324 181.441 257.908C181.079 257.492 180.551 257.284 179.857 257.284C179.185 257.284 178.652 257.497 178.257 257.924C177.863 258.34 177.665 258.921 177.665 259.668V264.1C177.665 264.206 177.628 264.297 177.553 264.372C177.489 264.436 177.404 264.468 177.297 264.468H176.497ZM189.292 264.628C188.151 264.628 187.255 264.308 186.604 263.668C185.964 263.017 185.623 262.11 185.58 260.948L185.564 260.308L185.58 259.668C185.623 258.505 185.964 257.604 186.604 256.964C187.255 256.313 188.151 255.988 189.292 255.988C190.06 255.988 190.711 256.126 191.244 256.404C191.778 256.681 192.172 257.022 192.428 257.428C192.695 257.833 192.839 258.238 192.86 258.644C192.871 258.75 192.839 258.836 192.764 258.9C192.69 258.964 192.599 258.996 192.492 258.996H191.724C191.618 258.996 191.538 258.974 191.484 258.932C191.431 258.889 191.378 258.804 191.324 258.676C191.143 258.164 190.887 257.801 190.556 257.588C190.226 257.364 189.81 257.252 189.308 257.252C188.647 257.252 188.119 257.46 187.724 257.876C187.34 258.281 187.132 258.905 187.1 259.748L187.084 260.324L187.1 260.868C187.132 261.721 187.34 262.35 187.724 262.756C188.108 263.161 188.636 263.364 189.308 263.364C189.81 263.364 190.226 263.257 190.556 263.044C190.887 262.82 191.143 262.452 191.324 261.94C191.378 261.812 191.431 261.726 191.484 261.684C191.538 261.63 191.618 261.604 191.724 261.604H192.492C192.599 261.604 192.69 261.641 192.764 261.716C192.839 261.78 192.871 261.865 192.86 261.972C192.839 262.366 192.695 262.772 192.428 263.188C192.172 263.593 191.778 263.934 191.244 264.212C190.722 264.489 190.071 264.628 189.292 264.628ZM198.189 264.628C197.09 264.628 196.21 264.292 195.549 263.62C194.898 262.937 194.541 262.009 194.477 260.836L194.461 260.292L194.477 259.764C194.551 258.612 194.914 257.694 195.565 257.012C196.226 256.329 197.095 255.988 198.173 255.988C199.357 255.988 200.274 256.366 200.925 257.124C201.575 257.87 201.901 258.884 201.901 260.164V260.436C201.901 260.542 201.863 260.633 201.789 260.708C201.725 260.772 201.639 260.804 201.533 260.804H195.997V260.948C196.029 261.641 196.237 262.233 196.621 262.724C197.015 263.204 197.533 263.444 198.173 263.444C198.663 263.444 199.063 263.348 199.373 263.156C199.693 262.953 199.927 262.745 200.077 262.532C200.173 262.404 200.242 262.329 200.285 262.308C200.338 262.276 200.429 262.26 200.557 262.26H201.341C201.437 262.26 201.517 262.286 201.581 262.34C201.645 262.393 201.677 262.468 201.677 262.564C201.677 262.798 201.527 263.081 201.229 263.412C200.941 263.742 200.53 264.03 199.997 264.276C199.474 264.51 198.871 264.628 198.189 264.628ZM200.381 259.7V259.652C200.381 258.916 200.178 258.318 199.773 257.86C199.378 257.39 198.845 257.156 198.173 257.156C197.501 257.156 196.967 257.39 196.573 257.86C196.189 258.318 195.997 258.916 195.997 259.652V259.7H200.381Z" fill="#272521"></path>
  <path d="M538.037 141.35C537.93 141.35 537.84 141.318 537.765 141.254C537.701 141.179 537.669 141.088 537.669 140.982V131.574H534.597C534.49 131.574 534.4 131.542 534.325 131.478C534.261 131.403 534.229 131.312 534.229 131.206V130.534C534.229 130.427 534.261 130.336 534.325 130.262C534.4 130.187 534.49 130.15 534.597 130.15H542.309C542.426 130.15 542.517 130.187 542.581 130.262C542.656 130.326 542.693 130.416 542.693 130.534V131.206C542.693 131.312 542.656 131.403 542.581 131.478C542.506 131.542 542.416 131.574 542.309 131.574H539.253V140.982C539.253 141.088 539.216 141.179 539.141 141.254C539.066 141.318 538.976 141.35 538.869 141.35H538.037ZM546.201 141.51C545.188 141.51 544.404 141.184 543.849 140.534C543.295 139.872 543.017 138.998 543.017 137.91V133.398C543.017 133.291 543.049 133.206 543.113 133.142C543.188 133.067 543.279 133.03 543.385 133.03H544.185C544.292 133.03 544.377 133.067 544.441 133.142C544.516 133.206 544.553 133.291 544.553 133.398V137.83C544.553 139.419 545.247 140.214 546.633 140.214C547.305 140.214 547.839 140.006 548.233 139.59C548.628 139.163 548.825 138.576 548.825 137.83V133.398C548.825 133.291 548.857 133.206 548.921 133.142C548.996 133.067 549.087 133.03 549.193 133.03H549.993C550.1 133.03 550.185 133.067 550.249 133.142C550.313 133.206 550.345 133.291 550.345 133.398V140.982C550.345 141.088 550.313 141.179 550.249 141.254C550.185 141.318 550.1 141.35 549.993 141.35H549.241C549.135 141.35 549.044 141.318 548.969 141.254C548.905 141.179 548.873 141.088 548.873 140.982V140.278C548.575 140.683 548.212 140.992 547.785 141.206C547.359 141.408 546.831 141.51 546.201 141.51ZM556.07 141.35C554.385 141.35 553.542 140.411 553.542 138.534V134.31H552.294C552.188 134.31 552.097 134.278 552.022 134.214C551.958 134.139 551.926 134.048 551.926 133.942V133.398C551.926 133.291 551.958 133.206 552.022 133.142C552.097 133.067 552.188 133.03 552.294 133.03H553.542V130.358C553.542 130.251 553.574 130.166 553.638 130.102C553.713 130.027 553.804 129.99 553.91 129.99H554.662C554.769 129.99 554.854 130.027 554.918 130.102C554.993 130.166 555.03 130.251 555.03 130.358V133.03H557.014C557.121 133.03 557.206 133.067 557.27 133.142C557.345 133.206 557.382 133.291 557.382 133.398V133.942C557.382 134.048 557.345 134.139 557.27 134.214C557.206 134.278 557.121 134.31 557.014 134.31H555.03V138.422C555.03 138.955 555.121 139.36 555.302 139.638C555.484 139.904 555.782 140.038 556.198 140.038H557.174C557.281 140.038 557.366 140.075 557.43 140.15C557.505 140.214 557.542 140.299 557.542 140.406V140.982C557.542 141.088 557.505 141.179 557.43 141.254C557.366 141.318 557.281 141.35 557.174 141.35H556.07ZM562.58 141.51C561.407 141.51 560.495 141.179 559.844 140.518C559.204 139.856 558.863 138.976 558.82 137.878L558.804 137.19L558.82 136.502C558.863 135.414 559.21 134.539 559.86 133.878C560.511 133.206 561.418 132.87 562.58 132.87C563.743 132.87 564.65 133.206 565.3 133.878C565.951 134.539 566.298 135.414 566.34 136.502C566.351 136.619 566.356 136.848 566.356 137.19C566.356 137.531 566.351 137.76 566.34 137.878C566.298 138.976 565.951 139.856 565.3 140.518C564.66 141.179 563.754 141.51 562.58 141.51ZM562.58 140.278C563.252 140.278 563.78 140.064 564.164 139.638C564.559 139.211 564.772 138.598 564.804 137.798C564.815 137.691 564.82 137.488 564.82 137.19C564.82 136.891 564.815 136.688 564.804 136.582C564.772 135.782 564.559 135.168 564.164 134.742C563.78 134.315 563.252 134.102 562.58 134.102C561.908 134.102 561.375 134.315 560.98 134.742C560.586 135.168 560.378 135.782 560.356 136.582L560.34 137.19L560.356 137.798C560.378 138.598 560.586 139.211 560.98 139.638C561.375 140.064 561.908 140.278 562.58 140.278ZM568.828 141.35C568.721 141.35 568.63 141.318 568.556 141.254C568.492 141.179 568.46 141.088 568.46 140.982V133.414C568.46 133.307 568.492 133.216 568.556 133.142C568.63 133.067 568.721 133.03 568.828 133.03H569.564C569.67 133.03 569.761 133.067 569.836 133.142C569.91 133.216 569.948 133.307 569.948 133.414V134.118C570.385 133.392 571.132 133.03 572.188 133.03H572.812C572.918 133.03 573.004 133.067 573.068 133.142C573.142 133.206 573.18 133.291 573.18 133.398V134.054C573.18 134.16 573.142 134.246 573.068 134.31C573.004 134.374 572.918 134.406 572.812 134.406H571.852C571.276 134.406 570.822 134.576 570.492 134.918C570.161 135.248 569.996 135.702 569.996 136.278V140.982C569.996 141.088 569.958 141.179 569.884 141.254C569.809 141.318 569.718 141.35 569.612 141.35H568.828ZM574.878 131.478C574.771 131.478 574.681 131.446 574.606 131.382C574.542 131.307 574.51 131.216 574.51 131.11V130.246C574.51 130.139 574.542 130.048 574.606 129.974C574.681 129.899 574.771 129.862 574.878 129.862H575.886C575.993 129.862 576.083 129.899 576.158 129.974C576.233 130.048 576.27 130.139 576.27 130.246V131.11C576.27 131.216 576.233 131.307 576.158 131.382C576.083 131.446 575.993 131.478 575.886 131.478H574.878ZM575.006 141.35C574.899 141.35 574.809 141.318 574.734 141.254C574.67 141.179 574.638 141.088 574.638 140.982V133.398C574.638 133.291 574.67 133.206 574.734 133.142C574.809 133.067 574.899 133.03 575.006 133.03H575.774C575.881 133.03 575.966 133.067 576.03 133.142C576.105 133.206 576.142 133.291 576.142 133.398V140.982C576.142 141.088 576.105 141.179 576.03 141.254C575.966 141.318 575.881 141.35 575.774 141.35H575.006ZM580.933 141.51C580.41 141.51 579.925 141.403 579.477 141.19C579.029 140.976 578.672 140.688 578.405 140.326C578.149 139.952 578.021 139.542 578.021 139.094C578.021 138.39 578.309 137.814 578.885 137.366C579.472 136.907 580.261 136.608 581.253 136.47L583.637 136.134V135.67C583.637 134.582 583.013 134.038 581.765 134.038C581.296 134.038 580.912 134.139 580.613 134.342C580.314 134.534 580.09 134.763 579.941 135.03C579.909 135.126 579.866 135.195 579.813 135.238C579.77 135.28 579.706 135.302 579.621 135.302H578.933C578.837 135.302 578.752 135.27 578.677 135.206C578.613 135.131 578.581 135.046 578.581 134.95C578.592 134.694 578.709 134.406 578.933 134.086C579.168 133.755 579.525 133.472 580.005 133.238C580.485 132.992 581.077 132.87 581.781 132.87C582.976 132.87 583.834 133.152 584.357 133.718C584.88 134.272 585.141 134.966 585.141 135.798V140.982C585.141 141.088 585.104 141.179 585.029 141.254C584.965 141.318 584.88 141.35 584.773 141.35H584.037C583.93 141.35 583.84 141.318 583.765 141.254C583.701 141.179 583.669 141.088 583.669 140.982V140.294C583.434 140.635 583.093 140.923 582.645 141.158C582.197 141.392 581.626 141.51 580.933 141.51ZM581.269 140.31C581.962 140.31 582.528 140.086 582.965 139.638C583.413 139.179 583.637 138.523 583.637 137.67V137.222L581.781 137.494C581.024 137.6 580.453 137.782 580.069 138.038C579.685 138.283 579.493 138.598 579.493 138.982C579.493 139.408 579.669 139.739 580.021 139.974C580.373 140.198 580.789 140.31 581.269 140.31ZM587.925 141.35C587.818 141.35 587.728 141.318 587.653 141.254C587.589 141.179 587.557 141.088 587.557 140.982V130.358C587.557 130.251 587.589 130.166 587.653 130.102C587.728 130.027 587.818 129.99 587.925 129.99H588.677C588.784 129.99 588.869 130.027 588.933 130.102C589.008 130.166 589.045 130.251 589.045 130.358V140.982C589.045 141.088 589.008 141.179 588.933 141.254C588.869 141.318 588.784 141.35 588.677 141.35H587.925ZM594.412 141.51C593.665 141.51 593.036 141.392 592.524 141.158C592.022 140.912 591.644 140.635 591.388 140.326C591.142 140.016 591.02 139.76 591.02 139.558C591.02 139.451 591.057 139.371 591.132 139.318C591.217 139.254 591.302 139.222 591.388 139.222H592.108C592.214 139.222 592.31 139.275 592.396 139.382C592.652 139.68 592.929 139.915 593.228 140.086C593.526 140.256 593.926 140.342 594.428 140.342C594.982 140.342 595.43 140.235 595.772 140.022C596.124 139.798 596.3 139.494 596.3 139.11C596.3 138.854 596.225 138.646 596.076 138.486C595.937 138.315 595.692 138.171 595.34 138.054C594.998 137.926 594.486 137.787 593.804 137.638C592.876 137.435 592.214 137.142 591.82 136.758C591.436 136.374 591.244 135.878 591.244 135.27C591.244 134.864 591.361 134.48 591.596 134.118C591.841 133.744 592.193 133.446 592.652 133.222C593.121 132.987 593.681 132.87 594.332 132.87C595.014 132.87 595.596 132.982 596.076 133.206C596.556 133.43 596.913 133.696 597.148 134.006C597.393 134.304 597.516 134.555 597.516 134.758C597.516 134.854 597.478 134.934 597.404 134.998C597.34 135.062 597.26 135.094 597.164 135.094H596.492C596.364 135.094 596.257 135.04 596.172 134.934C596.001 134.731 595.852 134.576 595.724 134.47C595.606 134.352 595.43 134.251 595.196 134.166C594.972 134.08 594.684 134.038 594.332 134.038C593.82 134.038 593.425 134.15 593.148 134.374C592.87 134.587 592.732 134.87 592.732 135.222C592.732 135.446 592.79 135.638 592.908 135.798C593.025 135.947 593.249 136.086 593.58 136.214C593.921 136.342 594.412 136.475 595.052 136.614C596.065 136.827 596.78 137.136 597.196 137.542C597.622 137.936 597.836 138.443 597.836 139.062C597.836 139.52 597.702 139.936 597.436 140.31C597.169 140.683 596.774 140.976 596.252 141.19C595.74 141.403 595.126 141.51 594.412 141.51Z" fill="#272521"></path>
  <path d="M5.424 113.987C3.99467 113.987 2.90667 113.603 2.16 112.835C1.424 112.067 1.02933 111.006 0.976 109.651C0.965333 109.363 0.96 108.894 0.96 108.243C0.96 107.582 0.965333 107.102 0.976 106.803C1.02933 105.459 1.42933 104.403 2.176 103.635C2.92267 102.856 4.00533 102.467 5.424 102.467C6.37333 102.467 7.17867 102.638 7.84 102.979C8.50133 103.31 9.00267 103.747 9.344 104.291C9.68533 104.835 9.872 105.416 9.904 106.035V106.067C9.904 106.152 9.86667 106.227 9.792 106.291C9.728 106.344 9.65333 106.371 9.568 106.371H8.688C8.47467 106.371 8.34133 106.248 8.288 106.003C8.10667 105.203 7.78133 104.643 7.312 104.323C6.84267 103.992 6.21333 103.827 5.424 103.827C3.58933 103.827 2.64 104.846 2.576 106.883C2.56533 107.171 2.56 107.614 2.56 108.211C2.56 108.808 2.56533 109.262 2.576 109.571C2.64 111.608 3.58933 112.627 5.424 112.627C6.21333 112.627 6.84267 112.467 7.312 112.147C7.792 111.816 8.11733 111.251 8.288 110.451C8.32 110.312 8.368 110.216 8.432 110.163C8.496 110.11 8.58133 110.083 8.688 110.083H9.568C9.664 110.083 9.744 110.115 9.808 110.179C9.88267 110.232 9.91467 110.307 9.904 110.403C9.872 111.032 9.68533 111.619 9.344 112.163C9.00267 112.707 8.50133 113.15 7.84 113.491C7.17867 113.822 6.37333 113.987 5.424 113.987ZM15.3483 113.987C14.1749 113.987 13.2629 113.656 12.6123 112.995C11.9723 112.334 11.6309 111.454 11.5883 110.355L11.5723 109.667L11.5883 108.979C11.6309 107.891 11.9776 107.016 12.6283 106.355C13.2789 105.683 14.1856 105.347 15.3483 105.347C16.5109 105.347 17.4176 105.683 18.0683 106.355C18.7189 107.016 19.0656 107.891 19.1083 108.979C19.1189 109.096 19.1243 109.326 19.1243 109.667C19.1243 110.008 19.1189 110.238 19.1083 110.355C19.0656 111.454 18.7189 112.334 18.0683 112.995C17.4283 113.656 16.5216 113.987 15.3483 113.987ZM15.3483 112.755C16.0203 112.755 16.5483 112.542 16.9323 112.115C17.3269 111.688 17.5403 111.075 17.5723 110.275C17.5829 110.168 17.5883 109.966 17.5883 109.667C17.5883 109.368 17.5829 109.166 17.5723 109.059C17.5403 108.259 17.3269 107.646 16.9323 107.219C16.5483 106.792 16.0203 106.579 15.3483 106.579C14.6763 106.579 14.1429 106.792 13.7483 107.219C13.3536 107.646 13.1456 108.259 13.1243 109.059L13.1083 109.667L13.1243 110.275C13.1456 111.075 13.3536 111.688 13.7483 112.115C14.1429 112.542 14.6763 112.755 15.3483 112.755ZM24.2678 113.987C23.1584 113.987 22.3211 113.624 21.7558 112.899C21.1904 112.174 20.8918 111.256 20.8598 110.147L20.8438 109.667L20.8598 109.187C20.8918 108.088 21.1904 107.176 21.7558 106.451C22.3211 105.715 23.1584 105.347 24.2678 105.347C25.3664 105.347 26.2304 105.736 26.8598 106.515V102.835C26.8598 102.728 26.8918 102.643 26.9558 102.579C27.0304 102.504 27.1211 102.467 27.2278 102.467H27.9958C28.1024 102.467 28.1878 102.504 28.2518 102.579C28.3264 102.643 28.3638 102.728 28.3638 102.835V113.459C28.3638 113.566 28.3264 113.656 28.2518 113.731C28.1878 113.795 28.1024 113.827 27.9958 113.827H27.2758C27.1691 113.827 27.0784 113.795 27.0038 113.731C26.9398 113.656 26.9078 113.566 26.9078 113.459V112.787C26.2891 113.587 25.4091 113.987 24.2678 113.987ZM24.6038 112.691C25.3398 112.691 25.8891 112.451 26.2518 111.971C26.6251 111.48 26.8278 110.899 26.8598 110.227C26.8704 110.11 26.8758 109.907 26.8758 109.619C26.8758 109.32 26.8704 109.112 26.8598 108.995C26.8384 108.366 26.6358 107.816 26.2518 107.347C25.8678 106.878 25.3184 106.643 24.6038 106.643C23.8464 106.643 23.2918 106.878 22.9398 107.347C22.5984 107.816 22.4118 108.435 22.3798 109.203L22.3638 109.667C22.3638 111.683 23.1104 112.691 24.6038 112.691ZM34.1714 113.987C33.0727 113.987 32.1927 113.651 31.5314 112.979C30.8807 112.296 30.5234 111.368 30.4594 110.195L30.4434 109.651L30.4594 109.123C30.534 107.971 30.8967 107.054 31.5474 106.371C32.2087 105.688 33.078 105.347 34.1554 105.347C35.3394 105.347 36.2567 105.726 36.9074 106.483C37.558 107.23 37.8834 108.243 37.8834 109.523V109.795C37.8834 109.902 37.846 109.992 37.7714 110.067C37.7074 110.131 37.622 110.163 37.5154 110.163H31.9794V110.307C32.0114 111 32.2194 111.592 32.6034 112.083C32.998 112.563 33.5154 112.803 34.1554 112.803C34.646 112.803 35.046 112.707 35.3554 112.515C35.6754 112.312 35.91 112.104 36.0594 111.891C36.1554 111.763 36.2247 111.688 36.2674 111.667C36.3207 111.635 36.4114 111.619 36.5394 111.619H37.3234C37.4194 111.619 37.4994 111.646 37.5634 111.699C37.6274 111.752 37.6594 111.827 37.6594 111.923C37.6594 112.158 37.51 112.44 37.2114 112.771C36.9234 113.102 36.5127 113.39 35.9794 113.635C35.4567 113.87 34.854 113.987 34.1714 113.987ZM36.3634 109.059V109.011C36.3634 108.275 36.1607 107.678 35.7554 107.219C35.3607 106.75 34.8274 106.515 34.1554 106.515C33.4834 106.515 32.95 106.75 32.5554 107.219C32.1714 107.678 31.9794 108.275 31.9794 109.011V109.059H36.3634ZM40.1845 109.699C40.0778 109.699 39.9872 109.667 39.9125 109.603C39.8485 109.528 39.8165 109.438 39.8165 109.331V108.723C39.8165 108.616 39.8485 108.531 39.9125 108.467C39.9872 108.392 40.0778 108.355 40.1845 108.355H44.9845C45.0912 108.355 45.1765 108.392 45.2405 108.467C45.3152 108.531 45.3525 108.616 45.3525 108.723V109.331C45.3525 109.438 45.3152 109.528 45.2405 109.603C45.1765 109.667 45.0912 109.699 44.9845 109.699H40.1845ZM48.2131 113.827C48.1065 113.827 48.0158 113.795 47.9411 113.731C47.8771 113.656 47.8451 113.566 47.8451 113.459V103.011C47.8451 102.894 47.8771 102.803 47.9411 102.739C48.0158 102.664 48.1065 102.627 48.2131 102.627H52.1171C53.3438 102.627 54.3038 102.915 54.9971 103.491C55.6905 104.067 56.0371 104.899 56.0371 105.987C56.0371 106.798 55.8345 107.464 55.4291 107.987C55.0345 108.51 54.4745 108.872 53.7491 109.075L56.2131 113.331C56.2451 113.395 56.2611 113.454 56.2611 113.507C56.2611 113.592 56.2238 113.667 56.1491 113.731C56.0851 113.795 56.0105 113.827 55.9251 113.827H55.1571C54.9971 113.827 54.8691 113.79 54.7731 113.715C54.6878 113.64 54.6078 113.534 54.5331 113.395L52.2131 109.331H49.4131V113.459C49.4131 113.566 49.3758 113.656 49.3011 113.731C49.2265 113.795 49.1358 113.827 49.0291 113.827H48.2131ZM52.0531 107.971C53.6425 107.971 54.4371 107.304 54.4371 105.971C54.4371 104.638 53.6425 103.971 52.0531 103.971H49.4131V107.971H52.0531ZM61.4557 113.987C60.3571 113.987 59.4771 113.651 58.8157 112.979C58.1651 112.296 57.8077 111.368 57.7437 110.195L57.7277 109.651L57.7437 109.123C57.8184 107.971 58.1811 107.054 58.8317 106.371C59.4931 105.688 60.3624 105.347 61.4397 105.347C62.6237 105.347 63.5411 105.726 64.1917 106.483C64.8424 107.23 65.1677 108.243 65.1677 109.523V109.795C65.1677 109.902 65.1304 109.992 65.0557 110.067C64.9917 110.131 64.9064 110.163 64.7997 110.163H59.2637V110.307C59.2957 111 59.5037 111.592 59.8877 112.083C60.2824 112.563 60.7997 112.803 61.4397 112.803C61.9304 112.803 62.3304 112.707 62.6397 112.515C62.9597 112.312 63.1944 112.104 63.3437 111.891C63.4397 111.763 63.5091 111.688 63.5517 111.667C63.6051 111.635 63.6957 111.619 63.8237 111.619H64.6077C64.7037 111.619 64.7837 111.646 64.8477 111.699C64.9117 111.752 64.9437 111.827 64.9437 111.923C64.9437 112.158 64.7944 112.44 64.4957 112.771C64.2077 113.102 63.7971 113.39 63.2637 113.635C62.7411 113.87 62.1384 113.987 61.4557 113.987ZM63.6477 109.059V109.011C63.6477 108.275 63.4451 107.678 63.0397 107.219C62.6451 106.75 62.1117 106.515 61.4397 106.515C60.7677 106.515 60.2344 106.75 59.8397 107.219C59.4557 107.678 59.2637 108.275 59.2637 109.011V109.059H63.6477ZM67.5649 116.867C67.4582 116.867 67.3675 116.83 67.2929 116.755C67.2289 116.691 67.1969 116.606 67.1969 116.499V105.875C67.1969 105.768 67.2289 105.683 67.2929 105.619C67.3675 105.544 67.4582 105.507 67.5649 105.507H68.3009C68.4075 105.507 68.4929 105.544 68.5569 105.619C68.6315 105.683 68.6689 105.768 68.6689 105.875V106.579C69.2662 105.758 70.1409 105.347 71.2929 105.347C72.4129 105.347 73.2502 105.699 73.8049 106.403C74.3702 107.107 74.6742 108.014 74.7169 109.123C74.7275 109.24 74.7329 109.422 74.7329 109.667C74.7329 109.912 74.7275 110.094 74.7169 110.211C74.6742 111.31 74.3702 112.216 73.8049 112.931C73.2395 113.635 72.4022 113.987 71.2929 113.987C70.1835 113.987 69.3195 113.587 68.7009 112.787V116.499C68.7009 116.606 68.6689 116.691 68.6049 116.755C68.5409 116.83 68.4555 116.867 68.3489 116.867H67.5649ZM70.9569 112.691C71.7142 112.691 72.2635 112.456 72.6049 111.987C72.9569 111.518 73.1489 110.899 73.1809 110.131C73.1915 110.024 73.1969 109.87 73.1969 109.667C73.1969 107.651 72.4502 106.643 70.9569 106.643C70.2209 106.643 69.6662 106.888 69.2929 107.379C68.9302 107.859 68.7329 108.435 68.7009 109.107L68.6849 109.715L68.7009 110.339C68.7222 110.968 68.9249 111.518 69.3089 111.987C69.6929 112.456 70.2422 112.691 70.9569 112.691ZM80.2201 113.987C79.0468 113.987 78.1348 113.656 77.4841 112.995C76.8441 112.334 76.5028 111.454 76.4601 110.355L76.4441 109.667L76.4601 108.979C76.5028 107.891 76.8495 107.016 77.5001 106.355C78.1508 105.683 79.0575 105.347 80.2201 105.347C81.3828 105.347 82.2895 105.683 82.9401 106.355C83.5908 107.016 83.9375 107.891 83.9801 108.979C83.9908 109.096 83.9961 109.326 83.9961 109.667C83.9961 110.008 83.9908 110.238 83.9801 110.355C83.9375 111.454 83.5908 112.334 82.9401 112.995C82.3001 113.656 81.3935 113.987 80.2201 113.987ZM80.2201 112.755C80.8921 112.755 81.4201 112.542 81.8041 112.115C82.1988 111.688 82.4121 111.075 82.4441 110.275C82.4548 110.168 82.4601 109.966 82.4601 109.667C82.4601 109.368 82.4548 109.166 82.4441 109.059C82.4121 108.259 82.1988 107.646 81.8041 107.219C81.4201 106.792 80.8921 106.579 80.2201 106.579C79.5481 106.579 79.0148 106.792 78.6201 107.219C78.2255 107.646 78.0175 108.259 77.9961 109.059L77.9801 109.667L77.9961 110.275C78.0175 111.075 78.2255 111.688 78.6201 112.115C79.0148 112.542 79.5481 112.755 80.2201 112.755ZM88.9796 113.987C88.233 113.987 87.6036 113.87 87.0916 113.635C86.5903 113.39 86.2116 113.112 85.9556 112.803C85.7103 112.494 85.5876 112.238 85.5876 112.035C85.5876 111.928 85.625 111.848 85.6996 111.795C85.785 111.731 85.8703 111.699 85.9556 111.699H86.6756C86.7823 111.699 86.8783 111.752 86.9636 111.859C87.2196 112.158 87.497 112.392 87.7956 112.563C88.0943 112.734 88.4943 112.819 88.9956 112.819C89.5503 112.819 89.9983 112.712 90.3396 112.499C90.6916 112.275 90.8676 111.971 90.8676 111.587C90.8676 111.331 90.793 111.123 90.6436 110.963C90.505 110.792 90.2596 110.648 89.9076 110.531C89.5663 110.403 89.0543 110.264 88.3716 110.115C87.4436 109.912 86.7823 109.619 86.3876 109.235C86.0036 108.851 85.8116 108.355 85.8116 107.747C85.8116 107.342 85.929 106.958 86.1636 106.595C86.409 106.222 86.761 105.923 87.2196 105.699C87.689 105.464 88.249 105.347 88.8996 105.347C89.5823 105.347 90.1636 105.459 90.6436 105.683C91.1236 105.907 91.481 106.174 91.7156 106.483C91.961 106.782 92.0836 107.032 92.0836 107.235C92.0836 107.331 92.0463 107.411 91.9716 107.475C91.9076 107.539 91.8276 107.571 91.7316 107.571H91.0596C90.9316 107.571 90.825 107.518 90.7396 107.411C90.569 107.208 90.4196 107.054 90.2916 106.947C90.1743 106.83 89.9983 106.728 89.7636 106.643C89.5396 106.558 89.2516 106.515 88.8996 106.515C88.3876 106.515 87.993 106.627 87.7156 106.851C87.4383 107.064 87.2996 107.347 87.2996 107.699C87.2996 107.923 87.3583 108.115 87.4756 108.275C87.593 108.424 87.817 108.563 88.1476 108.691C88.489 108.819 88.9796 108.952 89.6196 109.091C90.633 109.304 91.3476 109.614 91.7636 110.019C92.1903 110.414 92.4036 110.92 92.4036 111.539C92.4036 111.998 92.2703 112.414 92.0036 112.787C91.737 113.16 91.3423 113.454 90.8196 113.667C90.3076 113.88 89.6943 113.987 88.9796 113.987ZM94.5959 103.955C94.4892 103.955 94.3985 103.923 94.3239 103.859C94.2599 103.784 94.2279 103.694 94.2279 103.587V102.723C94.2279 102.616 94.2599 102.526 94.3239 102.451C94.3985 102.376 94.4892 102.339 94.5959 102.339H95.6039C95.7105 102.339 95.8012 102.376 95.8759 102.451C95.9505 102.526 95.9879 102.616 95.9879 102.723V103.587C95.9879 103.694 95.9505 103.784 95.8759 103.859C95.8012 103.923 95.7105 103.955 95.6039 103.955H94.5959ZM94.7239 113.827C94.6172 113.827 94.5265 113.795 94.4519 113.731C94.3879 113.656 94.3559 113.566 94.3559 113.459V105.875C94.3559 105.768 94.3879 105.683 94.4519 105.619C94.5265 105.544 94.6172 105.507 94.7239 105.507H95.4919C95.5985 105.507 95.6839 105.544 95.7479 105.619C95.8225 105.683 95.8599 105.768 95.8599 105.875V113.459C95.8599 113.566 95.8225 113.656 95.7479 113.731C95.6839 113.795 95.5985 113.827 95.4919 113.827H94.7239ZM101.579 113.827C99.8935 113.827 99.0509 112.888 99.0509 111.011V106.787H97.8029C97.6962 106.787 97.6055 106.755 97.5309 106.691C97.4669 106.616 97.4349 106.526 97.4349 106.419V105.875C97.4349 105.768 97.4669 105.683 97.5309 105.619C97.6055 105.544 97.6962 105.507 97.8029 105.507H99.0509V102.835C99.0509 102.728 99.0829 102.643 99.1469 102.579C99.2215 102.504 99.3122 102.467 99.4189 102.467H100.171C100.278 102.467 100.363 102.504 100.427 102.579C100.502 102.643 100.539 102.728 100.539 102.835V105.507H102.523C102.63 105.507 102.715 105.544 102.779 105.619C102.854 105.683 102.891 105.768 102.891 105.875V106.419C102.891 106.526 102.854 106.616 102.779 106.691C102.715 106.755 102.63 106.787 102.523 106.787H100.539V110.899C100.539 111.432 100.63 111.838 100.811 112.115C100.992 112.382 101.291 112.515 101.707 112.515H102.683C102.79 112.515 102.875 112.552 102.939 112.627C103.014 112.691 103.051 112.776 103.051 112.883V113.459C103.051 113.566 103.014 113.656 102.939 113.731C102.875 113.795 102.79 113.827 102.683 113.827H101.579ZM108.089 113.987C106.916 113.987 106.004 113.656 105.353 112.995C104.713 112.334 104.372 111.454 104.329 110.355L104.313 109.667L104.329 108.979C104.372 107.891 104.718 107.016 105.369 106.355C106.02 105.683 106.926 105.347 108.089 105.347C109.252 105.347 110.158 105.683 110.809 106.355C111.46 107.016 111.806 107.891 111.849 108.979C111.86 109.096 111.865 109.326 111.865 109.667C111.865 110.008 111.86 110.238 111.849 110.355C111.806 111.454 111.46 112.334 110.809 112.995C110.169 113.656 109.262 113.987 108.089 113.987ZM108.089 112.755C108.761 112.755 109.289 112.542 109.673 112.115C110.068 111.688 110.281 111.075 110.313 110.275C110.324 110.168 110.329 109.966 110.329 109.667C110.329 109.368 110.324 109.166 110.313 109.059C110.281 108.259 110.068 107.646 109.673 107.219C109.289 106.792 108.761 106.579 108.089 106.579C107.417 106.579 106.884 106.792 106.489 107.219C106.094 107.646 105.886 108.259 105.865 109.059L105.849 109.667L105.865 110.275C105.886 111.075 106.094 111.688 106.489 112.115C106.884 112.542 107.417 112.755 108.089 112.755ZM114.336 113.827C114.23 113.827 114.139 113.795 114.064 113.731C114 113.656 113.968 113.566 113.968 113.459V105.891C113.968 105.784 114 105.694 114.064 105.619C114.139 105.544 114.23 105.507 114.336 105.507H115.072C115.179 105.507 115.27 105.544 115.344 105.619C115.419 105.694 115.456 105.784 115.456 105.891V106.595C115.894 105.87 116.64 105.507 117.696 105.507H118.32C118.427 105.507 118.512 105.544 118.576 105.619C118.651 105.683 118.688 105.768 118.688 105.875V106.531C118.688 106.638 118.651 106.723 118.576 106.787C118.512 106.851 118.427 106.883 118.32 106.883H117.36C116.784 106.883 116.331 107.054 116 107.395C115.67 107.726 115.504 108.179 115.504 108.755V113.459C115.504 113.566 115.467 113.656 115.392 113.731C115.318 113.795 115.227 113.827 115.12 113.827H114.336ZM120.387 103.955C120.28 103.955 120.189 103.923 120.115 103.859C120.051 103.784 120.019 103.694 120.019 103.587V102.723C120.019 102.616 120.051 102.526 120.115 102.451C120.189 102.376 120.28 102.339 120.387 102.339H121.395C121.501 102.339 121.592 102.376 121.667 102.451C121.741 102.526 121.779 102.616 121.779 102.723V103.587C121.779 103.694 121.741 103.784 121.667 103.859C121.592 103.923 121.501 103.955 121.395 103.955H120.387ZM120.515 113.827C120.408 113.827 120.317 113.795 120.243 113.731C120.179 113.656 120.147 113.566 120.147 113.459V105.875C120.147 105.768 120.179 105.683 120.243 105.619C120.317 105.544 120.408 105.507 120.515 105.507H121.283C121.389 105.507 121.475 105.544 121.539 105.619C121.613 105.683 121.651 105.768 121.651 105.875V113.459C121.651 113.566 121.613 113.656 121.539 113.731C121.475 113.795 121.389 113.827 121.283 113.827H120.515ZM127.45 113.987C126.351 113.987 125.471 113.651 124.81 112.979C124.159 112.296 123.802 111.368 123.738 110.195L123.722 109.651L123.738 109.123C123.812 107.971 124.175 107.054 124.826 106.371C125.487 105.688 126.356 105.347 127.434 105.347C128.618 105.347 129.535 105.726 130.186 106.483C130.836 107.23 131.161 108.243 131.161 109.523V109.795C131.161 109.902 131.124 109.992 131.05 110.067C130.986 110.131 130.9 110.163 130.794 110.163H125.258V110.307C125.29 111 125.498 111.592 125.882 112.083C126.276 112.563 126.794 112.803 127.434 112.803C127.924 112.803 128.324 112.707 128.634 112.515C128.954 112.312 129.188 112.104 129.338 111.891C129.434 111.763 129.503 111.688 129.546 111.667C129.599 111.635 129.69 111.619 129.818 111.619H130.602C130.698 111.619 130.778 111.646 130.842 111.699C130.906 111.752 130.938 111.827 130.938 111.923C130.938 112.158 130.788 112.44 130.49 112.771C130.202 113.102 129.791 113.39 129.258 113.635C128.735 113.87 128.132 113.987 127.45 113.987ZM129.642 109.059V109.011C129.642 108.275 129.439 107.678 129.034 107.219C128.639 106.75 128.106 106.515 127.434 106.515C126.762 106.515 126.228 106.75 125.834 107.219C125.45 107.678 125.258 108.275 125.258 109.011V109.059H129.642ZM136.055 113.987C135.308 113.987 134.679 113.87 134.167 113.635C133.665 113.39 133.287 113.112 133.031 112.803C132.785 112.494 132.663 112.238 132.663 112.035C132.663 111.928 132.7 111.848 132.775 111.795C132.86 111.731 132.945 111.699 133.031 111.699H133.751C133.857 111.699 133.953 111.752 134.039 111.859C134.295 112.158 134.572 112.392 134.871 112.563C135.169 112.734 135.569 112.819 136.071 112.819C136.625 112.819 137.073 112.712 137.415 112.499C137.767 112.275 137.943 111.971 137.943 111.587C137.943 111.331 137.868 111.123 137.719 110.963C137.58 110.792 137.335 110.648 136.983 110.531C136.641 110.403 136.129 110.264 135.447 110.115C134.519 109.912 133.857 109.619 133.463 109.235C133.079 108.851 132.887 108.355 132.887 107.747C132.887 107.342 133.004 106.958 133.239 106.595C133.484 106.222 133.836 105.923 134.295 105.699C134.764 105.464 135.324 105.347 135.975 105.347C136.657 105.347 137.239 105.459 137.719 105.683C138.199 105.907 138.556 106.174 138.791 106.483C139.036 106.782 139.159 107.032 139.159 107.235C139.159 107.331 139.121 107.411 139.047 107.475C138.983 107.539 138.903 107.571 138.807 107.571H138.135C138.007 107.571 137.9 107.518 137.815 107.411C137.644 107.208 137.495 107.054 137.367 106.947C137.249 106.83 137.073 106.728 136.839 106.643C136.615 106.558 136.327 106.515 135.975 106.515C135.463 106.515 135.068 106.627 134.791 106.851C134.513 107.064 134.375 107.347 134.375 107.699C134.375 107.923 134.433 108.115 134.551 108.275C134.668 108.424 134.892 108.563 135.223 108.691C135.564 108.819 136.055 108.952 136.695 109.091C137.708 109.304 138.423 109.614 138.839 110.019C139.265 110.414 139.479 110.92 139.479 111.539C139.479 111.998 139.345 112.414 139.079 112.787C138.812 113.16 138.417 113.454 137.895 113.667C137.383 113.88 136.769 113.987 136.055 113.987Z" fill="#272521"></path>
  <path d="M168.945 136.853L154.008 121.915H2.00781" stroke="black"></path>
  <path d="M222.3 258.582L208.758 272.124H56.7578" stroke="black"></path>
  <path d="M438.168 262.129L451.507 275.468H542.007" stroke="black"></path>
  <path d="M446.742 43.4342L458.506 31.6709H504.415" stroke="black"></path>
  <path d="M503.006 149.424H518.845L598.128 149.425" stroke="black"></path>
  <defs>
    <clipPath id="clip0">
      <rect width="304" height="272" fill="white" transform="translate(184.027)"></rect>
    </clipPath>
  </defs>
</svg>
